%TF.GenerationSoftware,KiCad,Pcbnew,7.0.8*%
%TF.CreationDate,2023-11-01T19:37:33-03:00*%
%TF.ProjectId,KICAD_STM32,4b494341-445f-4535-944d-33322e6b6963,rev?*%
%TF.SameCoordinates,Original*%
%TF.FileFunction,Legend,Top*%
%TF.FilePolarity,Positive*%
%FSLAX46Y46*%
G04 Gerber Fmt 4.6, Leading zero omitted, Abs format (unit mm)*
G04 Created by KiCad (PCBNEW 7.0.8) date 2023-11-01 19:37:33*
%MOMM*%
%LPD*%
G01*
G04 APERTURE LIST*
%ADD10C,0.200000*%
%ADD11C,0.150000*%
%ADD12C,0.120000*%
G04 APERTURE END LIST*
D10*
X100836623Y-45370802D02*
X99586623Y-45370802D01*
X99705671Y-44835088D02*
X99646147Y-44775564D01*
X99646147Y-44775564D02*
X99586623Y-44656517D01*
X99586623Y-44656517D02*
X99586623Y-44358898D01*
X99586623Y-44358898D02*
X99646147Y-44239850D01*
X99646147Y-44239850D02*
X99705671Y-44180326D01*
X99705671Y-44180326D02*
X99824719Y-44120803D01*
X99824719Y-44120803D02*
X99943766Y-44120803D01*
X99943766Y-44120803D02*
X100122338Y-44180326D01*
X100122338Y-44180326D02*
X100836623Y-44894612D01*
X100836623Y-44894612D02*
X100836623Y-44120803D01*
X100717576Y-42870803D02*
X100777100Y-42930327D01*
X100777100Y-42930327D02*
X100836623Y-43108898D01*
X100836623Y-43108898D02*
X100836623Y-43227946D01*
X100836623Y-43227946D02*
X100777100Y-43406517D01*
X100777100Y-43406517D02*
X100658052Y-43525565D01*
X100658052Y-43525565D02*
X100539004Y-43585088D01*
X100539004Y-43585088D02*
X100300909Y-43644612D01*
X100300909Y-43644612D02*
X100122338Y-43644612D01*
X100122338Y-43644612D02*
X99884242Y-43585088D01*
X99884242Y-43585088D02*
X99765195Y-43525565D01*
X99765195Y-43525565D02*
X99646147Y-43406517D01*
X99646147Y-43406517D02*
X99586623Y-43227946D01*
X99586623Y-43227946D02*
X99586623Y-43108898D01*
X99586623Y-43108898D02*
X99646147Y-42930327D01*
X99646147Y-42930327D02*
X99705671Y-42870803D01*
X89445863Y-31681861D02*
X89624435Y-31741385D01*
X89624435Y-31741385D02*
X89683958Y-31800909D01*
X89683958Y-31800909D02*
X89743482Y-31919957D01*
X89743482Y-31919957D02*
X89743482Y-32098528D01*
X89743482Y-32098528D02*
X89683958Y-32217576D01*
X89683958Y-32217576D02*
X89624435Y-32277100D01*
X89624435Y-32277100D02*
X89505387Y-32336623D01*
X89505387Y-32336623D02*
X89029197Y-32336623D01*
X89029197Y-32336623D02*
X89029197Y-31086623D01*
X89029197Y-31086623D02*
X89445863Y-31086623D01*
X89445863Y-31086623D02*
X89564911Y-31146147D01*
X89564911Y-31146147D02*
X89624435Y-31205671D01*
X89624435Y-31205671D02*
X89683958Y-31324719D01*
X89683958Y-31324719D02*
X89683958Y-31443766D01*
X89683958Y-31443766D02*
X89624435Y-31562814D01*
X89624435Y-31562814D02*
X89564911Y-31622338D01*
X89564911Y-31622338D02*
X89445863Y-31681861D01*
X89445863Y-31681861D02*
X89029197Y-31681861D01*
X90517292Y-31086623D02*
X90755387Y-31086623D01*
X90755387Y-31086623D02*
X90874435Y-31146147D01*
X90874435Y-31146147D02*
X90993482Y-31265195D01*
X90993482Y-31265195D02*
X91053006Y-31503290D01*
X91053006Y-31503290D02*
X91053006Y-31919957D01*
X91053006Y-31919957D02*
X90993482Y-32158052D01*
X90993482Y-32158052D02*
X90874435Y-32277100D01*
X90874435Y-32277100D02*
X90755387Y-32336623D01*
X90755387Y-32336623D02*
X90517292Y-32336623D01*
X90517292Y-32336623D02*
X90398244Y-32277100D01*
X90398244Y-32277100D02*
X90279197Y-32158052D01*
X90279197Y-32158052D02*
X90219673Y-31919957D01*
X90219673Y-31919957D02*
X90219673Y-31503290D01*
X90219673Y-31503290D02*
X90279197Y-31265195D01*
X90279197Y-31265195D02*
X90398244Y-31146147D01*
X90398244Y-31146147D02*
X90517292Y-31086623D01*
X91826816Y-31086623D02*
X92064911Y-31086623D01*
X92064911Y-31086623D02*
X92183959Y-31146147D01*
X92183959Y-31146147D02*
X92303006Y-31265195D01*
X92303006Y-31265195D02*
X92362530Y-31503290D01*
X92362530Y-31503290D02*
X92362530Y-31919957D01*
X92362530Y-31919957D02*
X92303006Y-32158052D01*
X92303006Y-32158052D02*
X92183959Y-32277100D01*
X92183959Y-32277100D02*
X92064911Y-32336623D01*
X92064911Y-32336623D02*
X91826816Y-32336623D01*
X91826816Y-32336623D02*
X91707768Y-32277100D01*
X91707768Y-32277100D02*
X91588721Y-32158052D01*
X91588721Y-32158052D02*
X91529197Y-31919957D01*
X91529197Y-31919957D02*
X91529197Y-31503290D01*
X91529197Y-31503290D02*
X91588721Y-31265195D01*
X91588721Y-31265195D02*
X91707768Y-31146147D01*
X91707768Y-31146147D02*
X91826816Y-31086623D01*
X92719673Y-31086623D02*
X93433959Y-31086623D01*
X93076816Y-32336623D02*
X93076816Y-31086623D01*
X121829197Y-22386623D02*
X121829197Y-23398528D01*
X121829197Y-23398528D02*
X121888720Y-23517576D01*
X121888720Y-23517576D02*
X121948244Y-23577100D01*
X121948244Y-23577100D02*
X122067292Y-23636623D01*
X122067292Y-23636623D02*
X122305387Y-23636623D01*
X122305387Y-23636623D02*
X122424435Y-23577100D01*
X122424435Y-23577100D02*
X122483958Y-23517576D01*
X122483958Y-23517576D02*
X122543482Y-23398528D01*
X122543482Y-23398528D02*
X122543482Y-22386623D01*
X123079197Y-23577100D02*
X123257768Y-23636623D01*
X123257768Y-23636623D02*
X123555387Y-23636623D01*
X123555387Y-23636623D02*
X123674435Y-23577100D01*
X123674435Y-23577100D02*
X123733959Y-23517576D01*
X123733959Y-23517576D02*
X123793482Y-23398528D01*
X123793482Y-23398528D02*
X123793482Y-23279480D01*
X123793482Y-23279480D02*
X123733959Y-23160433D01*
X123733959Y-23160433D02*
X123674435Y-23100909D01*
X123674435Y-23100909D02*
X123555387Y-23041385D01*
X123555387Y-23041385D02*
X123317292Y-22981861D01*
X123317292Y-22981861D02*
X123198244Y-22922338D01*
X123198244Y-22922338D02*
X123138721Y-22862814D01*
X123138721Y-22862814D02*
X123079197Y-22743766D01*
X123079197Y-22743766D02*
X123079197Y-22624719D01*
X123079197Y-22624719D02*
X123138721Y-22505671D01*
X123138721Y-22505671D02*
X123198244Y-22446147D01*
X123198244Y-22446147D02*
X123317292Y-22386623D01*
X123317292Y-22386623D02*
X123614911Y-22386623D01*
X123614911Y-22386623D02*
X123793482Y-22446147D01*
X124745863Y-22981861D02*
X124924435Y-23041385D01*
X124924435Y-23041385D02*
X124983958Y-23100909D01*
X124983958Y-23100909D02*
X125043482Y-23219957D01*
X125043482Y-23219957D02*
X125043482Y-23398528D01*
X125043482Y-23398528D02*
X124983958Y-23517576D01*
X124983958Y-23517576D02*
X124924435Y-23577100D01*
X124924435Y-23577100D02*
X124805387Y-23636623D01*
X124805387Y-23636623D02*
X124329197Y-23636623D01*
X124329197Y-23636623D02*
X124329197Y-22386623D01*
X124329197Y-22386623D02*
X124745863Y-22386623D01*
X124745863Y-22386623D02*
X124864911Y-22446147D01*
X124864911Y-22446147D02*
X124924435Y-22505671D01*
X124924435Y-22505671D02*
X124983958Y-22624719D01*
X124983958Y-22624719D02*
X124983958Y-22743766D01*
X124983958Y-22743766D02*
X124924435Y-22862814D01*
X124924435Y-22862814D02*
X124864911Y-22922338D01*
X124864911Y-22922338D02*
X124745863Y-22981861D01*
X124745863Y-22981861D02*
X124329197Y-22981861D01*
X96329197Y-20486623D02*
X96329197Y-21498528D01*
X96329197Y-21498528D02*
X96388720Y-21617576D01*
X96388720Y-21617576D02*
X96448244Y-21677100D01*
X96448244Y-21677100D02*
X96567292Y-21736623D01*
X96567292Y-21736623D02*
X96805387Y-21736623D01*
X96805387Y-21736623D02*
X96924435Y-21677100D01*
X96924435Y-21677100D02*
X96983958Y-21617576D01*
X96983958Y-21617576D02*
X97043482Y-21498528D01*
X97043482Y-21498528D02*
X97043482Y-20486623D01*
X97579197Y-21379480D02*
X98174435Y-21379480D01*
X97460149Y-21736623D02*
X97876816Y-20486623D01*
X97876816Y-20486623D02*
X98293482Y-21736623D01*
X99424435Y-21736623D02*
X99007769Y-21141385D01*
X98710150Y-21736623D02*
X98710150Y-20486623D01*
X98710150Y-20486623D02*
X99186340Y-20486623D01*
X99186340Y-20486623D02*
X99305388Y-20546147D01*
X99305388Y-20546147D02*
X99364911Y-20605671D01*
X99364911Y-20605671D02*
X99424435Y-20724719D01*
X99424435Y-20724719D02*
X99424435Y-20903290D01*
X99424435Y-20903290D02*
X99364911Y-21022338D01*
X99364911Y-21022338D02*
X99305388Y-21081861D01*
X99305388Y-21081861D02*
X99186340Y-21141385D01*
X99186340Y-21141385D02*
X98710150Y-21141385D01*
X99781578Y-20486623D02*
X100495864Y-20486623D01*
X100138721Y-21736623D02*
X100138721Y-20486623D01*
X110169673Y-21677100D02*
X110348244Y-21736623D01*
X110348244Y-21736623D02*
X110645863Y-21736623D01*
X110645863Y-21736623D02*
X110764911Y-21677100D01*
X110764911Y-21677100D02*
X110824435Y-21617576D01*
X110824435Y-21617576D02*
X110883958Y-21498528D01*
X110883958Y-21498528D02*
X110883958Y-21379480D01*
X110883958Y-21379480D02*
X110824435Y-21260433D01*
X110824435Y-21260433D02*
X110764911Y-21200909D01*
X110764911Y-21200909D02*
X110645863Y-21141385D01*
X110645863Y-21141385D02*
X110407768Y-21081861D01*
X110407768Y-21081861D02*
X110288720Y-21022338D01*
X110288720Y-21022338D02*
X110229197Y-20962814D01*
X110229197Y-20962814D02*
X110169673Y-20843766D01*
X110169673Y-20843766D02*
X110169673Y-20724719D01*
X110169673Y-20724719D02*
X110229197Y-20605671D01*
X110229197Y-20605671D02*
X110288720Y-20546147D01*
X110288720Y-20546147D02*
X110407768Y-20486623D01*
X110407768Y-20486623D02*
X110705387Y-20486623D01*
X110705387Y-20486623D02*
X110883958Y-20546147D01*
X111300625Y-20486623D02*
X111598244Y-21736623D01*
X111598244Y-21736623D02*
X111836339Y-20843766D01*
X111836339Y-20843766D02*
X112074434Y-21736623D01*
X112074434Y-21736623D02*
X112372054Y-20486623D01*
X112848244Y-21736623D02*
X112848244Y-20486623D01*
X112848244Y-20486623D02*
X113145863Y-20486623D01*
X113145863Y-20486623D02*
X113324434Y-20546147D01*
X113324434Y-20546147D02*
X113443482Y-20665195D01*
X113443482Y-20665195D02*
X113503005Y-20784242D01*
X113503005Y-20784242D02*
X113562529Y-21022338D01*
X113562529Y-21022338D02*
X113562529Y-21200909D01*
X113562529Y-21200909D02*
X113503005Y-21439004D01*
X113503005Y-21439004D02*
X113443482Y-21558052D01*
X113443482Y-21558052D02*
X113324434Y-21677100D01*
X113324434Y-21677100D02*
X113145863Y-21736623D01*
X113145863Y-21736623D02*
X112848244Y-21736623D01*
D11*
X103333333Y-27859580D02*
X103285714Y-27907200D01*
X103285714Y-27907200D02*
X103142857Y-27954819D01*
X103142857Y-27954819D02*
X103047619Y-27954819D01*
X103047619Y-27954819D02*
X102904762Y-27907200D01*
X102904762Y-27907200D02*
X102809524Y-27811961D01*
X102809524Y-27811961D02*
X102761905Y-27716723D01*
X102761905Y-27716723D02*
X102714286Y-27526247D01*
X102714286Y-27526247D02*
X102714286Y-27383390D01*
X102714286Y-27383390D02*
X102761905Y-27192914D01*
X102761905Y-27192914D02*
X102809524Y-27097676D01*
X102809524Y-27097676D02*
X102904762Y-27002438D01*
X102904762Y-27002438D02*
X103047619Y-26954819D01*
X103047619Y-26954819D02*
X103142857Y-26954819D01*
X103142857Y-26954819D02*
X103285714Y-27002438D01*
X103285714Y-27002438D02*
X103333333Y-27050057D01*
X104190476Y-27288152D02*
X104190476Y-27954819D01*
X103952381Y-26907200D02*
X103714286Y-27621485D01*
X103714286Y-27621485D02*
X104333333Y-27621485D01*
X94323809Y-34078628D02*
X94323809Y-34554819D01*
X93990476Y-33554819D02*
X94323809Y-34078628D01*
X94323809Y-34078628D02*
X94657142Y-33554819D01*
X95514285Y-34554819D02*
X94942857Y-34554819D01*
X95228571Y-34554819D02*
X95228571Y-33554819D01*
X95228571Y-33554819D02*
X95133333Y-33697676D01*
X95133333Y-33697676D02*
X95038095Y-33792914D01*
X95038095Y-33792914D02*
X94942857Y-33840533D01*
X98075142Y-34591580D02*
X98027523Y-34639200D01*
X98027523Y-34639200D02*
X97884666Y-34686819D01*
X97884666Y-34686819D02*
X97789428Y-34686819D01*
X97789428Y-34686819D02*
X97646571Y-34639200D01*
X97646571Y-34639200D02*
X97551333Y-34543961D01*
X97551333Y-34543961D02*
X97503714Y-34448723D01*
X97503714Y-34448723D02*
X97456095Y-34258247D01*
X97456095Y-34258247D02*
X97456095Y-34115390D01*
X97456095Y-34115390D02*
X97503714Y-33924914D01*
X97503714Y-33924914D02*
X97551333Y-33829676D01*
X97551333Y-33829676D02*
X97646571Y-33734438D01*
X97646571Y-33734438D02*
X97789428Y-33686819D01*
X97789428Y-33686819D02*
X97884666Y-33686819D01*
X97884666Y-33686819D02*
X98027523Y-33734438D01*
X98027523Y-33734438D02*
X98075142Y-33782057D01*
X99027523Y-34686819D02*
X98456095Y-34686819D01*
X98741809Y-34686819D02*
X98741809Y-33686819D01*
X98741809Y-33686819D02*
X98646571Y-33829676D01*
X98646571Y-33829676D02*
X98551333Y-33924914D01*
X98551333Y-33924914D02*
X98456095Y-33972533D01*
X99360857Y-33686819D02*
X99979904Y-33686819D01*
X99979904Y-33686819D02*
X99646571Y-34067771D01*
X99646571Y-34067771D02*
X99789428Y-34067771D01*
X99789428Y-34067771D02*
X99884666Y-34115390D01*
X99884666Y-34115390D02*
X99932285Y-34163009D01*
X99932285Y-34163009D02*
X99979904Y-34258247D01*
X99979904Y-34258247D02*
X99979904Y-34496342D01*
X99979904Y-34496342D02*
X99932285Y-34591580D01*
X99932285Y-34591580D02*
X99884666Y-34639200D01*
X99884666Y-34639200D02*
X99789428Y-34686819D01*
X99789428Y-34686819D02*
X99503714Y-34686819D01*
X99503714Y-34686819D02*
X99408476Y-34639200D01*
X99408476Y-34639200D02*
X99360857Y-34591580D01*
X98075142Y-28569580D02*
X98027523Y-28617200D01*
X98027523Y-28617200D02*
X97884666Y-28664819D01*
X97884666Y-28664819D02*
X97789428Y-28664819D01*
X97789428Y-28664819D02*
X97646571Y-28617200D01*
X97646571Y-28617200D02*
X97551333Y-28521961D01*
X97551333Y-28521961D02*
X97503714Y-28426723D01*
X97503714Y-28426723D02*
X97456095Y-28236247D01*
X97456095Y-28236247D02*
X97456095Y-28093390D01*
X97456095Y-28093390D02*
X97503714Y-27902914D01*
X97503714Y-27902914D02*
X97551333Y-27807676D01*
X97551333Y-27807676D02*
X97646571Y-27712438D01*
X97646571Y-27712438D02*
X97789428Y-27664819D01*
X97789428Y-27664819D02*
X97884666Y-27664819D01*
X97884666Y-27664819D02*
X98027523Y-27712438D01*
X98027523Y-27712438D02*
X98075142Y-27760057D01*
X99027523Y-28664819D02*
X98456095Y-28664819D01*
X98741809Y-28664819D02*
X98741809Y-27664819D01*
X98741809Y-27664819D02*
X98646571Y-27807676D01*
X98646571Y-27807676D02*
X98551333Y-27902914D01*
X98551333Y-27902914D02*
X98456095Y-27950533D01*
X99408476Y-27760057D02*
X99456095Y-27712438D01*
X99456095Y-27712438D02*
X99551333Y-27664819D01*
X99551333Y-27664819D02*
X99789428Y-27664819D01*
X99789428Y-27664819D02*
X99884666Y-27712438D01*
X99884666Y-27712438D02*
X99932285Y-27760057D01*
X99932285Y-27760057D02*
X99979904Y-27855295D01*
X99979904Y-27855295D02*
X99979904Y-27950533D01*
X99979904Y-27950533D02*
X99932285Y-28093390D01*
X99932285Y-28093390D02*
X99360857Y-28664819D01*
X99360857Y-28664819D02*
X99979904Y-28664819D01*
X95333333Y-25154819D02*
X95000000Y-24678628D01*
X94761905Y-25154819D02*
X94761905Y-24154819D01*
X94761905Y-24154819D02*
X95142857Y-24154819D01*
X95142857Y-24154819D02*
X95238095Y-24202438D01*
X95238095Y-24202438D02*
X95285714Y-24250057D01*
X95285714Y-24250057D02*
X95333333Y-24345295D01*
X95333333Y-24345295D02*
X95333333Y-24488152D01*
X95333333Y-24488152D02*
X95285714Y-24583390D01*
X95285714Y-24583390D02*
X95238095Y-24631009D01*
X95238095Y-24631009D02*
X95142857Y-24678628D01*
X95142857Y-24678628D02*
X94761905Y-24678628D01*
X95714286Y-24250057D02*
X95761905Y-24202438D01*
X95761905Y-24202438D02*
X95857143Y-24154819D01*
X95857143Y-24154819D02*
X96095238Y-24154819D01*
X96095238Y-24154819D02*
X96190476Y-24202438D01*
X96190476Y-24202438D02*
X96238095Y-24250057D01*
X96238095Y-24250057D02*
X96285714Y-24345295D01*
X96285714Y-24345295D02*
X96285714Y-24440533D01*
X96285714Y-24440533D02*
X96238095Y-24583390D01*
X96238095Y-24583390D02*
X95666667Y-25154819D01*
X95666667Y-25154819D02*
X96285714Y-25154819D01*
X120138095Y-43454819D02*
X120138095Y-44264342D01*
X120138095Y-44264342D02*
X120185714Y-44359580D01*
X120185714Y-44359580D02*
X120233333Y-44407200D01*
X120233333Y-44407200D02*
X120328571Y-44454819D01*
X120328571Y-44454819D02*
X120519047Y-44454819D01*
X120519047Y-44454819D02*
X120614285Y-44407200D01*
X120614285Y-44407200D02*
X120661904Y-44359580D01*
X120661904Y-44359580D02*
X120709523Y-44264342D01*
X120709523Y-44264342D02*
X120709523Y-43454819D01*
X121709523Y-44454819D02*
X121138095Y-44454819D01*
X121423809Y-44454819D02*
X121423809Y-43454819D01*
X121423809Y-43454819D02*
X121328571Y-43597676D01*
X121328571Y-43597676D02*
X121233333Y-43692914D01*
X121233333Y-43692914D02*
X121138095Y-43740533D01*
X96921142Y-38259580D02*
X96873523Y-38307200D01*
X96873523Y-38307200D02*
X96730666Y-38354819D01*
X96730666Y-38354819D02*
X96635428Y-38354819D01*
X96635428Y-38354819D02*
X96492571Y-38307200D01*
X96492571Y-38307200D02*
X96397333Y-38211961D01*
X96397333Y-38211961D02*
X96349714Y-38116723D01*
X96349714Y-38116723D02*
X96302095Y-37926247D01*
X96302095Y-37926247D02*
X96302095Y-37783390D01*
X96302095Y-37783390D02*
X96349714Y-37592914D01*
X96349714Y-37592914D02*
X96397333Y-37497676D01*
X96397333Y-37497676D02*
X96492571Y-37402438D01*
X96492571Y-37402438D02*
X96635428Y-37354819D01*
X96635428Y-37354819D02*
X96730666Y-37354819D01*
X96730666Y-37354819D02*
X96873523Y-37402438D01*
X96873523Y-37402438D02*
X96921142Y-37450057D01*
X97873523Y-38354819D02*
X97302095Y-38354819D01*
X97587809Y-38354819D02*
X97587809Y-37354819D01*
X97587809Y-37354819D02*
X97492571Y-37497676D01*
X97492571Y-37497676D02*
X97397333Y-37592914D01*
X97397333Y-37592914D02*
X97302095Y-37640533D01*
X98492571Y-37354819D02*
X98587809Y-37354819D01*
X98587809Y-37354819D02*
X98683047Y-37402438D01*
X98683047Y-37402438D02*
X98730666Y-37450057D01*
X98730666Y-37450057D02*
X98778285Y-37545295D01*
X98778285Y-37545295D02*
X98825904Y-37735771D01*
X98825904Y-37735771D02*
X98825904Y-37973866D01*
X98825904Y-37973866D02*
X98778285Y-38164342D01*
X98778285Y-38164342D02*
X98730666Y-38259580D01*
X98730666Y-38259580D02*
X98683047Y-38307200D01*
X98683047Y-38307200D02*
X98587809Y-38354819D01*
X98587809Y-38354819D02*
X98492571Y-38354819D01*
X98492571Y-38354819D02*
X98397333Y-38307200D01*
X98397333Y-38307200D02*
X98349714Y-38259580D01*
X98349714Y-38259580D02*
X98302095Y-38164342D01*
X98302095Y-38164342D02*
X98254476Y-37973866D01*
X98254476Y-37973866D02*
X98254476Y-37735771D01*
X98254476Y-37735771D02*
X98302095Y-37545295D01*
X98302095Y-37545295D02*
X98349714Y-37450057D01*
X98349714Y-37450057D02*
X98397333Y-37402438D01*
X98397333Y-37402438D02*
X98492571Y-37354819D01*
X101833333Y-31259580D02*
X101785714Y-31307200D01*
X101785714Y-31307200D02*
X101642857Y-31354819D01*
X101642857Y-31354819D02*
X101547619Y-31354819D01*
X101547619Y-31354819D02*
X101404762Y-31307200D01*
X101404762Y-31307200D02*
X101309524Y-31211961D01*
X101309524Y-31211961D02*
X101261905Y-31116723D01*
X101261905Y-31116723D02*
X101214286Y-30926247D01*
X101214286Y-30926247D02*
X101214286Y-30783390D01*
X101214286Y-30783390D02*
X101261905Y-30592914D01*
X101261905Y-30592914D02*
X101309524Y-30497676D01*
X101309524Y-30497676D02*
X101404762Y-30402438D01*
X101404762Y-30402438D02*
X101547619Y-30354819D01*
X101547619Y-30354819D02*
X101642857Y-30354819D01*
X101642857Y-30354819D02*
X101785714Y-30402438D01*
X101785714Y-30402438D02*
X101833333Y-30450057D01*
X102404762Y-30783390D02*
X102309524Y-30735771D01*
X102309524Y-30735771D02*
X102261905Y-30688152D01*
X102261905Y-30688152D02*
X102214286Y-30592914D01*
X102214286Y-30592914D02*
X102214286Y-30545295D01*
X102214286Y-30545295D02*
X102261905Y-30450057D01*
X102261905Y-30450057D02*
X102309524Y-30402438D01*
X102309524Y-30402438D02*
X102404762Y-30354819D01*
X102404762Y-30354819D02*
X102595238Y-30354819D01*
X102595238Y-30354819D02*
X102690476Y-30402438D01*
X102690476Y-30402438D02*
X102738095Y-30450057D01*
X102738095Y-30450057D02*
X102785714Y-30545295D01*
X102785714Y-30545295D02*
X102785714Y-30592914D01*
X102785714Y-30592914D02*
X102738095Y-30688152D01*
X102738095Y-30688152D02*
X102690476Y-30735771D01*
X102690476Y-30735771D02*
X102595238Y-30783390D01*
X102595238Y-30783390D02*
X102404762Y-30783390D01*
X102404762Y-30783390D02*
X102309524Y-30831009D01*
X102309524Y-30831009D02*
X102261905Y-30878628D01*
X102261905Y-30878628D02*
X102214286Y-30973866D01*
X102214286Y-30973866D02*
X102214286Y-31164342D01*
X102214286Y-31164342D02*
X102261905Y-31259580D01*
X102261905Y-31259580D02*
X102309524Y-31307200D01*
X102309524Y-31307200D02*
X102404762Y-31354819D01*
X102404762Y-31354819D02*
X102595238Y-31354819D01*
X102595238Y-31354819D02*
X102690476Y-31307200D01*
X102690476Y-31307200D02*
X102738095Y-31259580D01*
X102738095Y-31259580D02*
X102785714Y-31164342D01*
X102785714Y-31164342D02*
X102785714Y-30973866D01*
X102785714Y-30973866D02*
X102738095Y-30878628D01*
X102738095Y-30878628D02*
X102690476Y-30831009D01*
X102690476Y-30831009D02*
X102595238Y-30783390D01*
X103933333Y-40754819D02*
X103600000Y-40278628D01*
X103361905Y-40754819D02*
X103361905Y-39754819D01*
X103361905Y-39754819D02*
X103742857Y-39754819D01*
X103742857Y-39754819D02*
X103838095Y-39802438D01*
X103838095Y-39802438D02*
X103885714Y-39850057D01*
X103885714Y-39850057D02*
X103933333Y-39945295D01*
X103933333Y-39945295D02*
X103933333Y-40088152D01*
X103933333Y-40088152D02*
X103885714Y-40183390D01*
X103885714Y-40183390D02*
X103838095Y-40231009D01*
X103838095Y-40231009D02*
X103742857Y-40278628D01*
X103742857Y-40278628D02*
X103361905Y-40278628D01*
X104790476Y-40088152D02*
X104790476Y-40754819D01*
X104552381Y-39707200D02*
X104314286Y-40421485D01*
X104314286Y-40421485D02*
X104933333Y-40421485D01*
X97877333Y-36114580D02*
X97829714Y-36162200D01*
X97829714Y-36162200D02*
X97686857Y-36209819D01*
X97686857Y-36209819D02*
X97591619Y-36209819D01*
X97591619Y-36209819D02*
X97448762Y-36162200D01*
X97448762Y-36162200D02*
X97353524Y-36066961D01*
X97353524Y-36066961D02*
X97305905Y-35971723D01*
X97305905Y-35971723D02*
X97258286Y-35781247D01*
X97258286Y-35781247D02*
X97258286Y-35638390D01*
X97258286Y-35638390D02*
X97305905Y-35447914D01*
X97305905Y-35447914D02*
X97353524Y-35352676D01*
X97353524Y-35352676D02*
X97448762Y-35257438D01*
X97448762Y-35257438D02*
X97591619Y-35209819D01*
X97591619Y-35209819D02*
X97686857Y-35209819D01*
X97686857Y-35209819D02*
X97829714Y-35257438D01*
X97829714Y-35257438D02*
X97877333Y-35305057D01*
X98353524Y-36209819D02*
X98544000Y-36209819D01*
X98544000Y-36209819D02*
X98639238Y-36162200D01*
X98639238Y-36162200D02*
X98686857Y-36114580D01*
X98686857Y-36114580D02*
X98782095Y-35971723D01*
X98782095Y-35971723D02*
X98829714Y-35781247D01*
X98829714Y-35781247D02*
X98829714Y-35400295D01*
X98829714Y-35400295D02*
X98782095Y-35305057D01*
X98782095Y-35305057D02*
X98734476Y-35257438D01*
X98734476Y-35257438D02*
X98639238Y-35209819D01*
X98639238Y-35209819D02*
X98448762Y-35209819D01*
X98448762Y-35209819D02*
X98353524Y-35257438D01*
X98353524Y-35257438D02*
X98305905Y-35305057D01*
X98305905Y-35305057D02*
X98258286Y-35400295D01*
X98258286Y-35400295D02*
X98258286Y-35638390D01*
X98258286Y-35638390D02*
X98305905Y-35733628D01*
X98305905Y-35733628D02*
X98353524Y-35781247D01*
X98353524Y-35781247D02*
X98448762Y-35828866D01*
X98448762Y-35828866D02*
X98639238Y-35828866D01*
X98639238Y-35828866D02*
X98734476Y-35781247D01*
X98734476Y-35781247D02*
X98782095Y-35733628D01*
X98782095Y-35733628D02*
X98829714Y-35638390D01*
X115959580Y-27866666D02*
X116007200Y-27914285D01*
X116007200Y-27914285D02*
X116054819Y-28057142D01*
X116054819Y-28057142D02*
X116054819Y-28152380D01*
X116054819Y-28152380D02*
X116007200Y-28295237D01*
X116007200Y-28295237D02*
X115911961Y-28390475D01*
X115911961Y-28390475D02*
X115816723Y-28438094D01*
X115816723Y-28438094D02*
X115626247Y-28485713D01*
X115626247Y-28485713D02*
X115483390Y-28485713D01*
X115483390Y-28485713D02*
X115292914Y-28438094D01*
X115292914Y-28438094D02*
X115197676Y-28390475D01*
X115197676Y-28390475D02*
X115102438Y-28295237D01*
X115102438Y-28295237D02*
X115054819Y-28152380D01*
X115054819Y-28152380D02*
X115054819Y-28057142D01*
X115054819Y-28057142D02*
X115102438Y-27914285D01*
X115102438Y-27914285D02*
X115150057Y-27866666D01*
X115054819Y-27009523D02*
X115054819Y-27199999D01*
X115054819Y-27199999D02*
X115102438Y-27295237D01*
X115102438Y-27295237D02*
X115150057Y-27342856D01*
X115150057Y-27342856D02*
X115292914Y-27438094D01*
X115292914Y-27438094D02*
X115483390Y-27485713D01*
X115483390Y-27485713D02*
X115864342Y-27485713D01*
X115864342Y-27485713D02*
X115959580Y-27438094D01*
X115959580Y-27438094D02*
X116007200Y-27390475D01*
X116007200Y-27390475D02*
X116054819Y-27295237D01*
X116054819Y-27295237D02*
X116054819Y-27104761D01*
X116054819Y-27104761D02*
X116007200Y-27009523D01*
X116007200Y-27009523D02*
X115959580Y-26961904D01*
X115959580Y-26961904D02*
X115864342Y-26914285D01*
X115864342Y-26914285D02*
X115626247Y-26914285D01*
X115626247Y-26914285D02*
X115531009Y-26961904D01*
X115531009Y-26961904D02*
X115483390Y-27009523D01*
X115483390Y-27009523D02*
X115435771Y-27104761D01*
X115435771Y-27104761D02*
X115435771Y-27295237D01*
X115435771Y-27295237D02*
X115483390Y-27390475D01*
X115483390Y-27390475D02*
X115531009Y-27438094D01*
X115531009Y-27438094D02*
X115626247Y-27485713D01*
X118233333Y-32859580D02*
X118185714Y-32907200D01*
X118185714Y-32907200D02*
X118042857Y-32954819D01*
X118042857Y-32954819D02*
X117947619Y-32954819D01*
X117947619Y-32954819D02*
X117804762Y-32907200D01*
X117804762Y-32907200D02*
X117709524Y-32811961D01*
X117709524Y-32811961D02*
X117661905Y-32716723D01*
X117661905Y-32716723D02*
X117614286Y-32526247D01*
X117614286Y-32526247D02*
X117614286Y-32383390D01*
X117614286Y-32383390D02*
X117661905Y-32192914D01*
X117661905Y-32192914D02*
X117709524Y-32097676D01*
X117709524Y-32097676D02*
X117804762Y-32002438D01*
X117804762Y-32002438D02*
X117947619Y-31954819D01*
X117947619Y-31954819D02*
X118042857Y-31954819D01*
X118042857Y-31954819D02*
X118185714Y-32002438D01*
X118185714Y-32002438D02*
X118233333Y-32050057D01*
X119185714Y-32954819D02*
X118614286Y-32954819D01*
X118900000Y-32954819D02*
X118900000Y-31954819D01*
X118900000Y-31954819D02*
X118804762Y-32097676D01*
X118804762Y-32097676D02*
X118709524Y-32192914D01*
X118709524Y-32192914D02*
X118614286Y-32240533D01*
X111938095Y-26554819D02*
X111938095Y-27364342D01*
X111938095Y-27364342D02*
X111985714Y-27459580D01*
X111985714Y-27459580D02*
X112033333Y-27507200D01*
X112033333Y-27507200D02*
X112128571Y-27554819D01*
X112128571Y-27554819D02*
X112319047Y-27554819D01*
X112319047Y-27554819D02*
X112414285Y-27507200D01*
X112414285Y-27507200D02*
X112461904Y-27459580D01*
X112461904Y-27459580D02*
X112509523Y-27364342D01*
X112509523Y-27364342D02*
X112509523Y-26554819D01*
X112938095Y-26650057D02*
X112985714Y-26602438D01*
X112985714Y-26602438D02*
X113080952Y-26554819D01*
X113080952Y-26554819D02*
X113319047Y-26554819D01*
X113319047Y-26554819D02*
X113414285Y-26602438D01*
X113414285Y-26602438D02*
X113461904Y-26650057D01*
X113461904Y-26650057D02*
X113509523Y-26745295D01*
X113509523Y-26745295D02*
X113509523Y-26840533D01*
X113509523Y-26840533D02*
X113461904Y-26983390D01*
X113461904Y-26983390D02*
X112890476Y-27554819D01*
X112890476Y-27554819D02*
X113509523Y-27554819D01*
X105257142Y-39159580D02*
X105209523Y-39207200D01*
X105209523Y-39207200D02*
X105066666Y-39254819D01*
X105066666Y-39254819D02*
X104971428Y-39254819D01*
X104971428Y-39254819D02*
X104828571Y-39207200D01*
X104828571Y-39207200D02*
X104733333Y-39111961D01*
X104733333Y-39111961D02*
X104685714Y-39016723D01*
X104685714Y-39016723D02*
X104638095Y-38826247D01*
X104638095Y-38826247D02*
X104638095Y-38683390D01*
X104638095Y-38683390D02*
X104685714Y-38492914D01*
X104685714Y-38492914D02*
X104733333Y-38397676D01*
X104733333Y-38397676D02*
X104828571Y-38302438D01*
X104828571Y-38302438D02*
X104971428Y-38254819D01*
X104971428Y-38254819D02*
X105066666Y-38254819D01*
X105066666Y-38254819D02*
X105209523Y-38302438D01*
X105209523Y-38302438D02*
X105257142Y-38350057D01*
X106209523Y-39254819D02*
X105638095Y-39254819D01*
X105923809Y-39254819D02*
X105923809Y-38254819D01*
X105923809Y-38254819D02*
X105828571Y-38397676D01*
X105828571Y-38397676D02*
X105733333Y-38492914D01*
X105733333Y-38492914D02*
X105638095Y-38540533D01*
X107161904Y-39254819D02*
X106590476Y-39254819D01*
X106876190Y-39254819D02*
X106876190Y-38254819D01*
X106876190Y-38254819D02*
X106780952Y-38397676D01*
X106780952Y-38397676D02*
X106685714Y-38492914D01*
X106685714Y-38492914D02*
X106590476Y-38540533D01*
X127762819Y-35810666D02*
X127286628Y-36143999D01*
X127762819Y-36382094D02*
X126762819Y-36382094D01*
X126762819Y-36382094D02*
X126762819Y-36001142D01*
X126762819Y-36001142D02*
X126810438Y-35905904D01*
X126810438Y-35905904D02*
X126858057Y-35858285D01*
X126858057Y-35858285D02*
X126953295Y-35810666D01*
X126953295Y-35810666D02*
X127096152Y-35810666D01*
X127096152Y-35810666D02*
X127191390Y-35858285D01*
X127191390Y-35858285D02*
X127239009Y-35905904D01*
X127239009Y-35905904D02*
X127286628Y-36001142D01*
X127286628Y-36001142D02*
X127286628Y-36382094D01*
X127762819Y-34858285D02*
X127762819Y-35429713D01*
X127762819Y-35143999D02*
X126762819Y-35143999D01*
X126762819Y-35143999D02*
X126905676Y-35239237D01*
X126905676Y-35239237D02*
X127000914Y-35334475D01*
X127000914Y-35334475D02*
X127048533Y-35429713D01*
X109633333Y-38059580D02*
X109585714Y-38107200D01*
X109585714Y-38107200D02*
X109442857Y-38154819D01*
X109442857Y-38154819D02*
X109347619Y-38154819D01*
X109347619Y-38154819D02*
X109204762Y-38107200D01*
X109204762Y-38107200D02*
X109109524Y-38011961D01*
X109109524Y-38011961D02*
X109061905Y-37916723D01*
X109061905Y-37916723D02*
X109014286Y-37726247D01*
X109014286Y-37726247D02*
X109014286Y-37583390D01*
X109014286Y-37583390D02*
X109061905Y-37392914D01*
X109061905Y-37392914D02*
X109109524Y-37297676D01*
X109109524Y-37297676D02*
X109204762Y-37202438D01*
X109204762Y-37202438D02*
X109347619Y-37154819D01*
X109347619Y-37154819D02*
X109442857Y-37154819D01*
X109442857Y-37154819D02*
X109585714Y-37202438D01*
X109585714Y-37202438D02*
X109633333Y-37250057D01*
X109966667Y-37154819D02*
X110633333Y-37154819D01*
X110633333Y-37154819D02*
X110204762Y-38154819D01*
X103043333Y-23829580D02*
X102995714Y-23877200D01*
X102995714Y-23877200D02*
X102852857Y-23924819D01*
X102852857Y-23924819D02*
X102757619Y-23924819D01*
X102757619Y-23924819D02*
X102614762Y-23877200D01*
X102614762Y-23877200D02*
X102519524Y-23781961D01*
X102519524Y-23781961D02*
X102471905Y-23686723D01*
X102471905Y-23686723D02*
X102424286Y-23496247D01*
X102424286Y-23496247D02*
X102424286Y-23353390D01*
X102424286Y-23353390D02*
X102471905Y-23162914D01*
X102471905Y-23162914D02*
X102519524Y-23067676D01*
X102519524Y-23067676D02*
X102614762Y-22972438D01*
X102614762Y-22972438D02*
X102757619Y-22924819D01*
X102757619Y-22924819D02*
X102852857Y-22924819D01*
X102852857Y-22924819D02*
X102995714Y-22972438D01*
X102995714Y-22972438D02*
X103043333Y-23020057D01*
X103376667Y-22924819D02*
X103995714Y-22924819D01*
X103995714Y-22924819D02*
X103662381Y-23305771D01*
X103662381Y-23305771D02*
X103805238Y-23305771D01*
X103805238Y-23305771D02*
X103900476Y-23353390D01*
X103900476Y-23353390D02*
X103948095Y-23401009D01*
X103948095Y-23401009D02*
X103995714Y-23496247D01*
X103995714Y-23496247D02*
X103995714Y-23734342D01*
X103995714Y-23734342D02*
X103948095Y-23829580D01*
X103948095Y-23829580D02*
X103900476Y-23877200D01*
X103900476Y-23877200D02*
X103805238Y-23924819D01*
X103805238Y-23924819D02*
X103519524Y-23924819D01*
X103519524Y-23924819D02*
X103424286Y-23877200D01*
X103424286Y-23877200D02*
X103376667Y-23829580D01*
X103465333Y-25609580D02*
X103417714Y-25657200D01*
X103417714Y-25657200D02*
X103274857Y-25704819D01*
X103274857Y-25704819D02*
X103179619Y-25704819D01*
X103179619Y-25704819D02*
X103036762Y-25657200D01*
X103036762Y-25657200D02*
X102941524Y-25561961D01*
X102941524Y-25561961D02*
X102893905Y-25466723D01*
X102893905Y-25466723D02*
X102846286Y-25276247D01*
X102846286Y-25276247D02*
X102846286Y-25133390D01*
X102846286Y-25133390D02*
X102893905Y-24942914D01*
X102893905Y-24942914D02*
X102941524Y-24847676D01*
X102941524Y-24847676D02*
X103036762Y-24752438D01*
X103036762Y-24752438D02*
X103179619Y-24704819D01*
X103179619Y-24704819D02*
X103274857Y-24704819D01*
X103274857Y-24704819D02*
X103417714Y-24752438D01*
X103417714Y-24752438D02*
X103465333Y-24800057D01*
X104370095Y-24704819D02*
X103893905Y-24704819D01*
X103893905Y-24704819D02*
X103846286Y-25181009D01*
X103846286Y-25181009D02*
X103893905Y-25133390D01*
X103893905Y-25133390D02*
X103989143Y-25085771D01*
X103989143Y-25085771D02*
X104227238Y-25085771D01*
X104227238Y-25085771D02*
X104322476Y-25133390D01*
X104322476Y-25133390D02*
X104370095Y-25181009D01*
X104370095Y-25181009D02*
X104417714Y-25276247D01*
X104417714Y-25276247D02*
X104417714Y-25514342D01*
X104417714Y-25514342D02*
X104370095Y-25609580D01*
X104370095Y-25609580D02*
X104322476Y-25657200D01*
X104322476Y-25657200D02*
X104227238Y-25704819D01*
X104227238Y-25704819D02*
X103989143Y-25704819D01*
X103989143Y-25704819D02*
X103893905Y-25657200D01*
X103893905Y-25657200D02*
X103846286Y-25609580D01*
X122465333Y-36821580D02*
X122417714Y-36869200D01*
X122417714Y-36869200D02*
X122274857Y-36916819D01*
X122274857Y-36916819D02*
X122179619Y-36916819D01*
X122179619Y-36916819D02*
X122036762Y-36869200D01*
X122036762Y-36869200D02*
X121941524Y-36773961D01*
X121941524Y-36773961D02*
X121893905Y-36678723D01*
X121893905Y-36678723D02*
X121846286Y-36488247D01*
X121846286Y-36488247D02*
X121846286Y-36345390D01*
X121846286Y-36345390D02*
X121893905Y-36154914D01*
X121893905Y-36154914D02*
X121941524Y-36059676D01*
X121941524Y-36059676D02*
X122036762Y-35964438D01*
X122036762Y-35964438D02*
X122179619Y-35916819D01*
X122179619Y-35916819D02*
X122274857Y-35916819D01*
X122274857Y-35916819D02*
X122417714Y-35964438D01*
X122417714Y-35964438D02*
X122465333Y-36012057D01*
X122846286Y-36012057D02*
X122893905Y-35964438D01*
X122893905Y-35964438D02*
X122989143Y-35916819D01*
X122989143Y-35916819D02*
X123227238Y-35916819D01*
X123227238Y-35916819D02*
X123322476Y-35964438D01*
X123322476Y-35964438D02*
X123370095Y-36012057D01*
X123370095Y-36012057D02*
X123417714Y-36107295D01*
X123417714Y-36107295D02*
X123417714Y-36202533D01*
X123417714Y-36202533D02*
X123370095Y-36345390D01*
X123370095Y-36345390D02*
X122798667Y-36916819D01*
X122798667Y-36916819D02*
X123417714Y-36916819D01*
X119154819Y-27866666D02*
X118678628Y-28199999D01*
X119154819Y-28438094D02*
X118154819Y-28438094D01*
X118154819Y-28438094D02*
X118154819Y-28057142D01*
X118154819Y-28057142D02*
X118202438Y-27961904D01*
X118202438Y-27961904D02*
X118250057Y-27914285D01*
X118250057Y-27914285D02*
X118345295Y-27866666D01*
X118345295Y-27866666D02*
X118488152Y-27866666D01*
X118488152Y-27866666D02*
X118583390Y-27914285D01*
X118583390Y-27914285D02*
X118631009Y-27961904D01*
X118631009Y-27961904D02*
X118678628Y-28057142D01*
X118678628Y-28057142D02*
X118678628Y-28438094D01*
X118154819Y-27533332D02*
X118154819Y-26914285D01*
X118154819Y-26914285D02*
X118535771Y-27247618D01*
X118535771Y-27247618D02*
X118535771Y-27104761D01*
X118535771Y-27104761D02*
X118583390Y-27009523D01*
X118583390Y-27009523D02*
X118631009Y-26961904D01*
X118631009Y-26961904D02*
X118726247Y-26914285D01*
X118726247Y-26914285D02*
X118964342Y-26914285D01*
X118964342Y-26914285D02*
X119059580Y-26961904D01*
X119059580Y-26961904D02*
X119107200Y-27009523D01*
X119107200Y-27009523D02*
X119154819Y-27104761D01*
X119154819Y-27104761D02*
X119154819Y-27390475D01*
X119154819Y-27390475D02*
X119107200Y-27485713D01*
X119107200Y-27485713D02*
X119059580Y-27533332D01*
X103631009Y-37533333D02*
X103631009Y-37866666D01*
X104154819Y-37866666D02*
X103154819Y-37866666D01*
X103154819Y-37866666D02*
X103154819Y-37390476D01*
X103631009Y-36676190D02*
X103678628Y-36533333D01*
X103678628Y-36533333D02*
X103726247Y-36485714D01*
X103726247Y-36485714D02*
X103821485Y-36438095D01*
X103821485Y-36438095D02*
X103964342Y-36438095D01*
X103964342Y-36438095D02*
X104059580Y-36485714D01*
X104059580Y-36485714D02*
X104107200Y-36533333D01*
X104107200Y-36533333D02*
X104154819Y-36628571D01*
X104154819Y-36628571D02*
X104154819Y-37009523D01*
X104154819Y-37009523D02*
X103154819Y-37009523D01*
X103154819Y-37009523D02*
X103154819Y-36676190D01*
X103154819Y-36676190D02*
X103202438Y-36580952D01*
X103202438Y-36580952D02*
X103250057Y-36533333D01*
X103250057Y-36533333D02*
X103345295Y-36485714D01*
X103345295Y-36485714D02*
X103440533Y-36485714D01*
X103440533Y-36485714D02*
X103535771Y-36533333D01*
X103535771Y-36533333D02*
X103583390Y-36580952D01*
X103583390Y-36580952D02*
X103631009Y-36676190D01*
X103631009Y-36676190D02*
X103631009Y-37009523D01*
X104154819Y-35485714D02*
X104154819Y-36057142D01*
X104154819Y-35771428D02*
X103154819Y-35771428D01*
X103154819Y-35771428D02*
X103297676Y-35866666D01*
X103297676Y-35866666D02*
X103392914Y-35961904D01*
X103392914Y-35961904D02*
X103440533Y-36057142D01*
X128154819Y-39938094D02*
X127154819Y-39938094D01*
X127154819Y-39938094D02*
X127154819Y-39699999D01*
X127154819Y-39699999D02*
X127202438Y-39557142D01*
X127202438Y-39557142D02*
X127297676Y-39461904D01*
X127297676Y-39461904D02*
X127392914Y-39414285D01*
X127392914Y-39414285D02*
X127583390Y-39366666D01*
X127583390Y-39366666D02*
X127726247Y-39366666D01*
X127726247Y-39366666D02*
X127916723Y-39414285D01*
X127916723Y-39414285D02*
X128011961Y-39461904D01*
X128011961Y-39461904D02*
X128107200Y-39557142D01*
X128107200Y-39557142D02*
X128154819Y-39699999D01*
X128154819Y-39699999D02*
X128154819Y-39938094D01*
X128154819Y-38414285D02*
X128154819Y-38985713D01*
X128154819Y-38699999D02*
X127154819Y-38699999D01*
X127154819Y-38699999D02*
X127297676Y-38795237D01*
X127297676Y-38795237D02*
X127392914Y-38890475D01*
X127392914Y-38890475D02*
X127440533Y-38985713D01*
X108133333Y-40754819D02*
X107800000Y-40278628D01*
X107561905Y-40754819D02*
X107561905Y-39754819D01*
X107561905Y-39754819D02*
X107942857Y-39754819D01*
X107942857Y-39754819D02*
X108038095Y-39802438D01*
X108038095Y-39802438D02*
X108085714Y-39850057D01*
X108085714Y-39850057D02*
X108133333Y-39945295D01*
X108133333Y-39945295D02*
X108133333Y-40088152D01*
X108133333Y-40088152D02*
X108085714Y-40183390D01*
X108085714Y-40183390D02*
X108038095Y-40231009D01*
X108038095Y-40231009D02*
X107942857Y-40278628D01*
X107942857Y-40278628D02*
X107561905Y-40278628D01*
X109038095Y-39754819D02*
X108561905Y-39754819D01*
X108561905Y-39754819D02*
X108514286Y-40231009D01*
X108514286Y-40231009D02*
X108561905Y-40183390D01*
X108561905Y-40183390D02*
X108657143Y-40135771D01*
X108657143Y-40135771D02*
X108895238Y-40135771D01*
X108895238Y-40135771D02*
X108990476Y-40183390D01*
X108990476Y-40183390D02*
X109038095Y-40231009D01*
X109038095Y-40231009D02*
X109085714Y-40326247D01*
X109085714Y-40326247D02*
X109085714Y-40564342D01*
X109085714Y-40564342D02*
X109038095Y-40659580D01*
X109038095Y-40659580D02*
X108990476Y-40707200D01*
X108990476Y-40707200D02*
X108895238Y-40754819D01*
X108895238Y-40754819D02*
X108657143Y-40754819D01*
X108657143Y-40754819D02*
X108561905Y-40707200D01*
X108561905Y-40707200D02*
X108514286Y-40659580D01*
D12*
%TO.C,C4*%
X101640000Y-28357836D02*
X101640000Y-28142164D01*
X102360000Y-28357836D02*
X102360000Y-28142164D01*
%TO.C,Y1*%
X98800000Y-29174000D02*
X95500000Y-29174000D01*
X95500000Y-29174000D02*
X95500000Y-33174000D01*
D11*
%TO.C,J1*%
X127513000Y-24811000D02*
X127363000Y-24811000D01*
X124963000Y-24811000D02*
X123563000Y-24811000D01*
X127963000Y-25111000D02*
X127513000Y-25111000D01*
X127513000Y-25111000D02*
X127513000Y-24811000D01*
X121813000Y-27161000D02*
X121813000Y-26161000D01*
X121388000Y-30036000D02*
X121388000Y-30761000D01*
X121813000Y-30761000D02*
X121813000Y-31761000D01*
X121388000Y-30761000D02*
X121813000Y-30761000D01*
X127513000Y-32811000D02*
X127963000Y-32811000D01*
X127513000Y-33111000D02*
X127513000Y-32811000D01*
X127363000Y-33111000D02*
X127513000Y-33111000D01*
X123563000Y-33111000D02*
X124963000Y-33111000D01*
D12*
%TO.C,C13*%
X99540000Y-32307836D02*
X99540000Y-32092164D01*
X100260000Y-32307836D02*
X100260000Y-32092164D01*
%TO.C,J4*%
X101794000Y-45018000D02*
X101794000Y-43688000D01*
X103124000Y-45018000D02*
X101794000Y-45018000D01*
X104394000Y-45018000D02*
X112074000Y-45018000D01*
X104394000Y-45018000D02*
X104394000Y-42358000D01*
X112074000Y-45018000D02*
X112074000Y-42358000D01*
X104394000Y-42358000D02*
X112074000Y-42358000D01*
%TO.C,SW1*%
X91002000Y-22650000D02*
X90212000Y-22650000D01*
X89202000Y-23250000D02*
X89202000Y-28950000D01*
X92052000Y-24500000D02*
X92052000Y-26200000D01*
X92052000Y-27500000D02*
X92052000Y-27700000D01*
X90212000Y-29550000D02*
X91002000Y-29550000D01*
%TO.C,J3*%
X106994000Y-16958000D02*
X106994000Y-18288000D01*
X105664000Y-16958000D02*
X106994000Y-16958000D01*
X104394000Y-16958000D02*
X96714000Y-16958000D01*
X104394000Y-16958000D02*
X104394000Y-19618000D01*
X96714000Y-16958000D02*
X96714000Y-19618000D01*
X104394000Y-19618000D02*
X96714000Y-19618000D01*
%TO.C,C12*%
X99540000Y-30293836D02*
X99540000Y-30078164D01*
X100260000Y-30293836D02*
X100260000Y-30078164D01*
%TO.C,R2*%
X95124000Y-26567641D02*
X95124000Y-26260359D01*
X95884000Y-26567641D02*
X95884000Y-26260359D01*
%TO.C,U1*%
X120758000Y-36032000D02*
X120758000Y-42042000D01*
X113938000Y-38282000D02*
X113938000Y-42042000D01*
X120758000Y-42042000D02*
X119498000Y-42042000D01*
X113938000Y-42042000D02*
X115198000Y-42042000D01*
%TO.C,C10*%
X100183836Y-38260000D02*
X99968164Y-38260000D01*
X100183836Y-37540000D02*
X99968164Y-37540000D01*
%TO.C,C8*%
X101748000Y-32693836D02*
X101748000Y-32478164D01*
X102468000Y-32693836D02*
X102468000Y-32478164D01*
%TO.C,R4*%
X106323641Y-40630000D02*
X106016359Y-40630000D01*
X106323641Y-39870000D02*
X106016359Y-39870000D01*
%TO.C,C9*%
X100211836Y-36115000D02*
X99996164Y-36115000D01*
X100211836Y-35395000D02*
X99996164Y-35395000D01*
%TO.C,C6*%
X114660000Y-28950164D02*
X114660000Y-29165836D01*
X113940000Y-28950164D02*
X113940000Y-29165836D01*
%TO.C,C1*%
X117188748Y-33403000D02*
X117711252Y-33403000D01*
X117188748Y-34873000D02*
X117711252Y-34873000D01*
%TO.C,U2*%
X104594000Y-27988000D02*
X104594000Y-28438000D01*
X104594000Y-28438000D02*
X103304000Y-28438000D01*
X104594000Y-35208000D02*
X104594000Y-34758000D01*
X105044000Y-27988000D02*
X104594000Y-27988000D01*
X105044000Y-35208000D02*
X104594000Y-35208000D01*
X111364000Y-27988000D02*
X111814000Y-27988000D01*
X111364000Y-35208000D02*
X111814000Y-35208000D01*
X111814000Y-27988000D02*
X111814000Y-28438000D01*
X111814000Y-35208000D02*
X111814000Y-34758000D01*
%TO.C,C11*%
X105792164Y-37140000D02*
X106007836Y-37140000D01*
X105792164Y-37860000D02*
X106007836Y-37860000D01*
%TO.C,R1*%
X125720000Y-35643641D02*
X125720000Y-35336359D01*
X126480000Y-35643641D02*
X126480000Y-35336359D01*
%TO.C,C7*%
X111857836Y-38054000D02*
X111642164Y-38054000D01*
X111857836Y-37334000D02*
X111642164Y-37334000D01*
%TO.C,C3*%
X105609420Y-22960000D02*
X105890580Y-22960000D01*
X105609420Y-23980000D02*
X105890580Y-23980000D01*
%TO.C,J2*%
X120710000Y-16958000D02*
X120710000Y-18288000D01*
X119380000Y-16958000D02*
X120710000Y-16958000D01*
X118110000Y-16958000D02*
X110430000Y-16958000D01*
X118110000Y-16958000D02*
X118110000Y-19618000D01*
X110430000Y-16958000D02*
X110430000Y-19618000D01*
X118110000Y-19618000D02*
X110430000Y-19618000D01*
%TO.C,C5*%
X105584164Y-24890000D02*
X105799836Y-24890000D01*
X105584164Y-25610000D02*
X105799836Y-25610000D01*
%TO.C,C2*%
X121765000Y-39211252D02*
X121765000Y-38688748D01*
X123235000Y-39211252D02*
X123235000Y-38688748D01*
%TO.C,R3*%
X117728000Y-28902359D02*
X117728000Y-29209641D01*
X116968000Y-28902359D02*
X116968000Y-29209641D01*
%TO.C,FB1*%
X102668000Y-36324878D02*
X102668000Y-37124122D01*
X101548000Y-36324878D02*
X101548000Y-37124122D01*
%TO.C,D1*%
X126835000Y-37109000D02*
X125365000Y-37109000D01*
X125365000Y-37109000D02*
X125365000Y-39394000D01*
X126835000Y-39394000D02*
X126835000Y-37109000D01*
%TO.C,R5*%
X110084359Y-39870000D02*
X110391641Y-39870000D01*
X110084359Y-40630000D02*
X110391641Y-40630000D01*
%TD*%
M02*
