M48
; DRILL file {KiCad 7.0.8} date Wed Nov  1 19:37:31 2023
; FORMAT={-:-/ absolute / metric / decimal}
; #@! TF.CreationDate,2023-11-01T19:37:31-03:00
; #@! TF.GenerationSoftware,Kicad,Pcbnew,7.0.8
; #@! TF.FileFunction,MixedPlating,1,2
FMAT,2
METRIC
; #@! TA.AperFunction,Plated,PTH,ViaDrill
T1C0.400
; #@! TA.AperFunction,Plated,PTH,ComponentDrill
T2C0.550
; #@! TA.AperFunction,Plated,PTH,ComponentDrill
T3C0.850
; #@! TA.AperFunction,Plated,PTH,ComponentDrill
T4C1.000
; #@! TA.AperFunction,NonPlated,NPTH,ComponentDrill
T5C0.800
; #@! TA.AperFunction,NonPlated,NPTH,ComponentDrill
T6C0.900
; #@! TA.AperFunction,NonPlated,NPTH,ComponentDrill
T7C2.200
%
G90
G05
T1
X94.5Y-23.0
X96.3Y-34.0
X99.596Y-38.9
X99.6Y-36.7
X100.702Y-31.481
X101.1Y-29.7
X102.0Y-26.75
X104.9Y-41.2
X105.7Y-32.7
X106.3Y-29.0
X106.5Y-41.2
X107.364Y-37.5
X109.89Y-39.1
X110.4Y-34.2
X111.389Y-39.1
X115.5Y-29.5
X119.2Y-38.9
X119.66Y-33.5
X119.66Y-34.8
X120.0Y-27.5
X120.3Y-38.9
X123.996Y-37.9
X124.5Y-35.0
T4
X98.044Y-18.288
X100.584Y-18.288
X103.124Y-18.288
X103.124Y-43.688
X105.664Y-18.288
X105.664Y-43.688
X108.204Y-43.688
X110.744Y-43.688
X111.76Y-18.288
X114.3Y-18.288
X116.84Y-18.288
X119.38Y-18.288
T5
X123.413Y-26.461
X123.413Y-31.461
T6
X90.602Y-24.6
X90.602Y-27.6
T7
X91.44Y-18.796
X91.44Y-43.18
X125.476Y-18.796
X125.476Y-43.18
T2
G00X125.838Y-25.086
M15
G01X126.488Y-25.086
M16
G05
G00X125.838Y-32.836
M15
G01X126.488Y-32.836
M16
G05
T3
G00X122.088Y-25.236
M15
G01X122.638Y-25.236
M16
G05
G00X122.088Y-32.686
M15
G01X122.638Y-32.686
M16
G05
T0
M30
