%TF.GenerationSoftware,KiCad,Pcbnew,7.0.8*%
%TF.CreationDate,2023-11-01T19:37:33-03:00*%
%TF.ProjectId,KICAD_STM32,4b494341-445f-4535-944d-33322e6b6963,rev?*%
%TF.SameCoordinates,Original*%
%TF.FileFunction,Soldermask,Top*%
%TF.FilePolarity,Negative*%
%FSLAX46Y46*%
G04 Gerber Fmt 4.6, Leading zero omitted, Abs format (unit mm)*
G04 Created by KiCad (PCBNEW 7.0.8) date 2023-11-01 19:37:33*
%MOMM*%
%LPD*%
G01*
G04 APERTURE LIST*
G04 Aperture macros list*
%AMRoundRect*
0 Rectangle with rounded corners*
0 $1 Rounding radius*
0 $2 $3 $4 $5 $6 $7 $8 $9 X,Y pos of 4 corners*
0 Add a 4 corners polygon primitive as box body*
4,1,4,$2,$3,$4,$5,$6,$7,$8,$9,$2,$3,0*
0 Add four circle primitives for the rounded corners*
1,1,$1+$1,$2,$3*
1,1,$1+$1,$4,$5*
1,1,$1+$1,$6,$7*
1,1,$1+$1,$8,$9*
0 Add four rect primitives between the rounded corners*
20,1,$1+$1,$2,$3,$4,$5,0*
20,1,$1+$1,$4,$5,$6,$7,0*
20,1,$1+$1,$6,$7,$8,$9,0*
20,1,$1+$1,$8,$9,$2,$3,0*%
G04 Aperture macros list end*
%ADD10RoundRect,0.140000X0.170000X-0.140000X0.170000X0.140000X-0.170000X0.140000X-0.170000X-0.140000X0*%
%ADD11C,2.200000*%
%ADD12R,1.200000X1.400000*%
%ADD13O,1.800000X1.150000*%
%ADD14O,2.000000X1.450000*%
%ADD15R,1.300000X0.450000*%
%ADD16O,0.800000X0.800000*%
%ADD17R,1.700000X1.700000*%
%ADD18O,1.700000X1.700000*%
%ADD19R,0.800000X1.000000*%
%ADD20C,0.900000*%
%ADD21R,1.500000X0.700000*%
%ADD22RoundRect,0.135000X0.185000X-0.135000X0.185000X0.135000X-0.185000X0.135000X-0.185000X-0.135000X0*%
%ADD23R,1.500000X2.000000*%
%ADD24R,3.800000X2.000000*%
%ADD25RoundRect,0.140000X0.140000X0.170000X-0.140000X0.170000X-0.140000X-0.170000X0.140000X-0.170000X0*%
%ADD26RoundRect,0.135000X0.135000X0.185000X-0.135000X0.185000X-0.135000X-0.185000X0.135000X-0.185000X0*%
%ADD27RoundRect,0.140000X-0.170000X0.140000X-0.170000X-0.140000X0.170000X-0.140000X0.170000X0.140000X0*%
%ADD28RoundRect,0.250000X-0.250000X-0.475000X0.250000X-0.475000X0.250000X0.475000X-0.250000X0.475000X0*%
%ADD29RoundRect,0.075000X-0.662500X-0.075000X0.662500X-0.075000X0.662500X0.075000X-0.662500X0.075000X0*%
%ADD30RoundRect,0.075000X-0.075000X-0.662500X0.075000X-0.662500X0.075000X0.662500X-0.075000X0.662500X0*%
%ADD31RoundRect,0.140000X-0.140000X-0.170000X0.140000X-0.170000X0.140000X0.170000X-0.140000X0.170000X0*%
%ADD32RoundRect,0.225000X-0.225000X-0.250000X0.225000X-0.250000X0.225000X0.250000X-0.225000X0.250000X0*%
%ADD33RoundRect,0.250000X0.475000X-0.250000X0.475000X0.250000X-0.475000X0.250000X-0.475000X-0.250000X0*%
%ADD34RoundRect,0.135000X-0.185000X0.135000X-0.185000X-0.135000X0.185000X-0.135000X0.185000X0.135000X0*%
%ADD35RoundRect,0.218750X-0.381250X0.218750X-0.381250X-0.218750X0.381250X-0.218750X0.381250X0.218750X0*%
%ADD36RoundRect,0.218750X-0.256250X0.218750X-0.256250X-0.218750X0.256250X-0.218750X0.256250X0.218750X0*%
%ADD37RoundRect,0.135000X-0.135000X-0.185000X0.135000X-0.185000X0.135000X0.185000X-0.135000X0.185000X0*%
G04 APERTURE END LIST*
D10*
%TO.C,C4*%
X102000000Y-28730000D03*
X102000000Y-27770000D03*
%TD*%
D11*
%TO.C,H4*%
X91440000Y-18796000D03*
%TD*%
D12*
%TO.C,Y1*%
X96300000Y-30074000D03*
X96300000Y-32274000D03*
X98000000Y-32274000D03*
X98000000Y-30074000D03*
%TD*%
D13*
%TO.C,J1*%
X126163000Y-25086000D03*
D14*
X122363000Y-25236000D03*
X122363000Y-32686000D03*
D13*
X126163000Y-32836000D03*
D15*
X122313000Y-27661000D03*
X122313000Y-28311000D03*
X122313000Y-28961000D03*
X122313000Y-29611000D03*
X122313000Y-30261000D03*
D16*
X123413000Y-26461000D03*
X123413000Y-31461000D03*
%TD*%
D11*
%TO.C,H2*%
X125476000Y-43180000D03*
%TD*%
D10*
%TO.C,C13*%
X99900000Y-32680000D03*
X99900000Y-31720000D03*
%TD*%
D17*
%TO.C,J4*%
X103124000Y-43688000D03*
D18*
X105664000Y-43688000D03*
X108204000Y-43688000D03*
X110744000Y-43688000D03*
%TD*%
D19*
%TO.C,SW1*%
X91712000Y-22450000D03*
X89502000Y-22450000D03*
D20*
X90602000Y-24600000D03*
X90602000Y-27600000D03*
D19*
X91712000Y-29750000D03*
X89502000Y-29750000D03*
D21*
X92362000Y-23850000D03*
X92362000Y-26850000D03*
X92362000Y-28350000D03*
%TD*%
D17*
%TO.C,J3*%
X105664000Y-18288000D03*
D18*
X103124000Y-18288000D03*
X100584000Y-18288000D03*
X98044000Y-18288000D03*
%TD*%
D10*
%TO.C,C12*%
X99900000Y-30666000D03*
X99900000Y-29706000D03*
%TD*%
D22*
%TO.C,R2*%
X95504000Y-26924000D03*
X95504000Y-25904000D03*
%TD*%
D23*
%TO.C,U1*%
X119648000Y-36982000D03*
X117348000Y-36982000D03*
D24*
X117348000Y-43282000D03*
D23*
X115048000Y-36982000D03*
%TD*%
D25*
%TO.C,C10*%
X100556000Y-37900000D03*
X99596000Y-37900000D03*
%TD*%
D10*
%TO.C,C8*%
X102108000Y-33066000D03*
X102108000Y-32106000D03*
%TD*%
D11*
%TO.C,H1*%
X91440000Y-43180000D03*
%TD*%
D26*
%TO.C,R4*%
X106680000Y-40250000D03*
X105660000Y-40250000D03*
%TD*%
D25*
%TO.C,C9*%
X100584000Y-35755000D03*
X99624000Y-35755000D03*
%TD*%
D27*
%TO.C,C6*%
X114300000Y-28578000D03*
X114300000Y-29538000D03*
%TD*%
D28*
%TO.C,C1*%
X116500000Y-34138000D03*
X118400000Y-34138000D03*
%TD*%
D29*
%TO.C,U2*%
X104041500Y-28848000D03*
X104041500Y-29348000D03*
X104041500Y-29848000D03*
X104041500Y-30348000D03*
X104041500Y-30848000D03*
X104041500Y-31348000D03*
X104041500Y-31848000D03*
X104041500Y-32348000D03*
X104041500Y-32848000D03*
X104041500Y-33348000D03*
X104041500Y-33848000D03*
X104041500Y-34348000D03*
D30*
X105454000Y-35760500D03*
X105954000Y-35760500D03*
X106454000Y-35760500D03*
X106954000Y-35760500D03*
X107454000Y-35760500D03*
X107954000Y-35760500D03*
X108454000Y-35760500D03*
X108954000Y-35760500D03*
X109454000Y-35760500D03*
X109954000Y-35760500D03*
X110454000Y-35760500D03*
X110954000Y-35760500D03*
D29*
X112366500Y-34348000D03*
X112366500Y-33848000D03*
X112366500Y-33348000D03*
X112366500Y-32848000D03*
X112366500Y-32348000D03*
X112366500Y-31848000D03*
X112366500Y-31348000D03*
X112366500Y-30848000D03*
X112366500Y-30348000D03*
X112366500Y-29848000D03*
X112366500Y-29348000D03*
X112366500Y-28848000D03*
D30*
X110954000Y-27435500D03*
X110454000Y-27435500D03*
X109954000Y-27435500D03*
X109454000Y-27435500D03*
X108954000Y-27435500D03*
X108454000Y-27435500D03*
X107954000Y-27435500D03*
X107454000Y-27435500D03*
X106954000Y-27435500D03*
X106454000Y-27435500D03*
X105954000Y-27435500D03*
X105454000Y-27435500D03*
%TD*%
D31*
%TO.C,C11*%
X105420000Y-37500000D03*
X106380000Y-37500000D03*
%TD*%
D22*
%TO.C,R1*%
X126100000Y-36000000D03*
X126100000Y-34980000D03*
%TD*%
D25*
%TO.C,C7*%
X112230000Y-37694000D03*
X111270000Y-37694000D03*
%TD*%
D32*
%TO.C,C3*%
X104975000Y-23470000D03*
X106525000Y-23470000D03*
%TD*%
D11*
%TO.C,H3*%
X125476000Y-18796000D03*
%TD*%
D17*
%TO.C,J2*%
X119380000Y-18288000D03*
D18*
X116840000Y-18288000D03*
X114300000Y-18288000D03*
X111760000Y-18288000D03*
%TD*%
D31*
%TO.C,C5*%
X105212000Y-25250000D03*
X106172000Y-25250000D03*
%TD*%
D33*
%TO.C,C2*%
X122500000Y-39900000D03*
X122500000Y-38000000D03*
%TD*%
D34*
%TO.C,R3*%
X117348000Y-28546000D03*
X117348000Y-29566000D03*
%TD*%
D35*
%TO.C,FB1*%
X102108000Y-35662000D03*
X102108000Y-37787000D03*
%TD*%
D36*
%TO.C,D1*%
X126100000Y-37806500D03*
X126100000Y-39381500D03*
%TD*%
D37*
%TO.C,R5*%
X109728000Y-40250000D03*
X110748000Y-40250000D03*
%TD*%
M02*
