%TF.GenerationSoftware,KiCad,Pcbnew,7.0.8*%
%TF.CreationDate,2023-11-01T19:37:33-03:00*%
%TF.ProjectId,KICAD_STM32,4b494341-445f-4535-944d-33322e6b6963,rev?*%
%TF.SameCoordinates,Original*%
%TF.FileFunction,Copper,L2,Bot*%
%TF.FilePolarity,Positive*%
%FSLAX46Y46*%
G04 Gerber Fmt 4.6, Leading zero omitted, Abs format (unit mm)*
G04 Created by KiCad (PCBNEW 7.0.8) date 2023-11-01 19:37:33*
%MOMM*%
%LPD*%
G01*
G04 APERTURE LIST*
%TA.AperFunction,ComponentPad*%
%ADD10O,1.800000X1.150000*%
%TD*%
%TA.AperFunction,ComponentPad*%
%ADD11O,2.000000X1.450000*%
%TD*%
%TA.AperFunction,ComponentPad*%
%ADD12R,1.700000X1.700000*%
%TD*%
%TA.AperFunction,ComponentPad*%
%ADD13O,1.700000X1.700000*%
%TD*%
%TA.AperFunction,ViaPad*%
%ADD14C,0.800000*%
%TD*%
%TA.AperFunction,Conductor*%
%ADD15C,0.500000*%
%TD*%
G04 APERTURE END LIST*
D10*
%TO.P,J1,6,Shield*%
%TO.N,N/C*%
X126163000Y-25086000D03*
D11*
X122363000Y-25236000D03*
X122363000Y-32686000D03*
D10*
X126163000Y-32836000D03*
%TD*%
D12*
%TO.P,J4,1,Pin_1*%
%TO.N,+3.3V*%
X103124000Y-43688000D03*
D13*
%TO.P,J4,2,Pin_2*%
%TO.N,/I2C2_SCL*%
X105664000Y-43688000D03*
%TO.P,J4,3,Pin_3*%
%TO.N,/I2C2_SDA*%
X108204000Y-43688000D03*
%TO.P,J4,4,Pin_4*%
%TO.N,GND*%
X110744000Y-43688000D03*
%TD*%
D12*
%TO.P,J3,1,Pin_1*%
%TO.N,+3.3V*%
X105664000Y-18288000D03*
D13*
%TO.P,J3,2,Pin_2*%
%TO.N,/UART1_TX*%
X103124000Y-18288000D03*
%TO.P,J3,3,Pin_3*%
%TO.N,/UART1_RX*%
X100584000Y-18288000D03*
%TO.P,J3,4,Pin_4*%
%TO.N,GND*%
X98044000Y-18288000D03*
%TD*%
D12*
%TO.P,J2,1,Pin_1*%
%TO.N,+3.3V*%
X119380000Y-18288000D03*
D13*
%TO.P,J2,2,Pin_2*%
%TO.N,/SWDIO*%
X116840000Y-18288000D03*
%TO.P,J2,3,Pin_3*%
%TO.N,/SWCLK*%
X114300000Y-18288000D03*
%TO.P,J2,4,Pin_4*%
%TO.N,GND*%
X111760000Y-18288000D03*
%TD*%
D14*
%TO.N,GND*%
X99596000Y-38900000D03*
X102000000Y-26750000D03*
X120300000Y-38900000D03*
X96300000Y-34000000D03*
X115500000Y-29500000D03*
X123996000Y-37900000D03*
X105700000Y-32700000D03*
X94500000Y-23000000D03*
X106300000Y-29000000D03*
X119200000Y-38900000D03*
X119660000Y-33500000D03*
X119660000Y-34800000D03*
X99600000Y-36700000D03*
X120000000Y-27500000D03*
X101100000Y-29700000D03*
X110400000Y-34200000D03*
X124500000Y-35000000D03*
X107364000Y-37500000D03*
X100701851Y-31481198D03*
%TO.N,+3.3V*%
X104900000Y-41200000D03*
X106500000Y-41200000D03*
X109890500Y-39100000D03*
X111389500Y-39100000D03*
%TD*%
D15*
%TO.N,+3.3V*%
X111389500Y-39100000D02*
X109890500Y-39100000D01*
X106500000Y-41200000D02*
X104900000Y-41200000D01*
%TD*%
%TA.AperFunction,Conductor*%
%TO.N,GND*%
G36*
X125477620Y-15748584D02*
G01*
X125609458Y-15755494D01*
X125798228Y-15766095D01*
X125804412Y-15766757D01*
X125893709Y-15780900D01*
X125958521Y-15791166D01*
X126106158Y-15816249D01*
X126124513Y-15819368D01*
X126130168Y-15820603D01*
X126285035Y-15862099D01*
X126374623Y-15887910D01*
X126443084Y-15907634D01*
X126448139Y-15909328D01*
X126599608Y-15967471D01*
X126750233Y-16029863D01*
X126754604Y-16031879D01*
X126900154Y-16106041D01*
X127042272Y-16184587D01*
X127046015Y-16186833D01*
X127183610Y-16276188D01*
X127315869Y-16370031D01*
X127318986Y-16372395D01*
X127445681Y-16474990D01*
X127447934Y-16476908D01*
X127567808Y-16584034D01*
X127570312Y-16586402D01*
X127685596Y-16701686D01*
X127687967Y-16704193D01*
X127795085Y-16824058D01*
X127797015Y-16826325D01*
X127899542Y-16952936D01*
X127899591Y-16952996D01*
X127901973Y-16956137D01*
X127990179Y-17080452D01*
X127995814Y-17088392D01*
X128085156Y-17225968D01*
X128087414Y-17229731D01*
X128098554Y-17249886D01*
X128165963Y-17371854D01*
X128240115Y-17517386D01*
X128242154Y-17521809D01*
X128304538Y-17672418D01*
X128362669Y-17823858D01*
X128364364Y-17828914D01*
X128409907Y-17986990D01*
X128451393Y-18141823D01*
X128452630Y-18147487D01*
X128480833Y-18313472D01*
X128498473Y-18424843D01*
X128500000Y-18444241D01*
X128500000Y-43531757D01*
X128498473Y-43551156D01*
X128480834Y-43662517D01*
X128452630Y-43828511D01*
X128451393Y-43834175D01*
X128409907Y-43989009D01*
X128364364Y-44147084D01*
X128362669Y-44152140D01*
X128304538Y-44303581D01*
X128242154Y-44454189D01*
X128240115Y-44458612D01*
X128165963Y-44604145D01*
X128087416Y-44746264D01*
X128085149Y-44750042D01*
X127995817Y-44887602D01*
X127901973Y-45019861D01*
X127899591Y-45023002D01*
X127797024Y-45149662D01*
X127795070Y-45151958D01*
X127687986Y-45271785D01*
X127685596Y-45274312D01*
X127570312Y-45389596D01*
X127567785Y-45391986D01*
X127447958Y-45499070D01*
X127445662Y-45501024D01*
X127319002Y-45603591D01*
X127315861Y-45605973D01*
X127183602Y-45699817D01*
X127046042Y-45789149D01*
X127042264Y-45791416D01*
X126900145Y-45869963D01*
X126754612Y-45944115D01*
X126750189Y-45946154D01*
X126599581Y-46008538D01*
X126448140Y-46066669D01*
X126443084Y-46068364D01*
X126285009Y-46113907D01*
X126130176Y-46155393D01*
X126124512Y-46156630D01*
X125958521Y-46184833D01*
X125804440Y-46209238D01*
X125798213Y-46209904D01*
X125609374Y-46220509D01*
X125477622Y-46227415D01*
X125474376Y-46227500D01*
X91441624Y-46227500D01*
X91438379Y-46227415D01*
X91306625Y-46220509D01*
X91117785Y-46209904D01*
X91111558Y-46209238D01*
X90957478Y-46184833D01*
X90791486Y-46156630D01*
X90785822Y-46155393D01*
X90630990Y-46113907D01*
X90472914Y-46068364D01*
X90467858Y-46066669D01*
X90316418Y-46008538D01*
X90165809Y-45946154D01*
X90161386Y-45944115D01*
X90015854Y-45869963D01*
X89873734Y-45791416D01*
X89869968Y-45789156D01*
X89732392Y-45699814D01*
X89600137Y-45605973D01*
X89597004Y-45603597D01*
X89470325Y-45501015D01*
X89468058Y-45499085D01*
X89348193Y-45391967D01*
X89345686Y-45389596D01*
X89230402Y-45274312D01*
X89228034Y-45271808D01*
X89120908Y-45151934D01*
X89118990Y-45149681D01*
X89016395Y-45022986D01*
X89014025Y-45019861D01*
X88920188Y-44887610D01*
X88830833Y-44750015D01*
X88828582Y-44746263D01*
X88750036Y-44604145D01*
X88740724Y-44585870D01*
X101773500Y-44585870D01*
X101773501Y-44585876D01*
X101779908Y-44645483D01*
X101830202Y-44780328D01*
X101830206Y-44780335D01*
X101916452Y-44895544D01*
X101916455Y-44895547D01*
X102031664Y-44981793D01*
X102031671Y-44981797D01*
X102166517Y-45032091D01*
X102166516Y-45032091D01*
X102173444Y-45032835D01*
X102226127Y-45038500D01*
X104021872Y-45038499D01*
X104081483Y-45032091D01*
X104216331Y-44981796D01*
X104331546Y-44895546D01*
X104417796Y-44780331D01*
X104466810Y-44648916D01*
X104508681Y-44592984D01*
X104574145Y-44568566D01*
X104642418Y-44583417D01*
X104670673Y-44604569D01*
X104792599Y-44726495D01*
X104889384Y-44794265D01*
X104986165Y-44862032D01*
X104986167Y-44862033D01*
X104986170Y-44862035D01*
X105200337Y-44961903D01*
X105428592Y-45023063D01*
X105605034Y-45038500D01*
X105663999Y-45043659D01*
X105664000Y-45043659D01*
X105664001Y-45043659D01*
X105722966Y-45038500D01*
X105899408Y-45023063D01*
X106127663Y-44961903D01*
X106341830Y-44862035D01*
X106535401Y-44726495D01*
X106702495Y-44559401D01*
X106832425Y-44373842D01*
X106887002Y-44330217D01*
X106956500Y-44323023D01*
X107018855Y-44354546D01*
X107035575Y-44373842D01*
X107165281Y-44559082D01*
X107165505Y-44559401D01*
X107332599Y-44726495D01*
X107429384Y-44794265D01*
X107526165Y-44862032D01*
X107526167Y-44862033D01*
X107526170Y-44862035D01*
X107740337Y-44961903D01*
X107968592Y-45023063D01*
X108145034Y-45038500D01*
X108203999Y-45043659D01*
X108204000Y-45043659D01*
X108204001Y-45043659D01*
X108262966Y-45038500D01*
X108439408Y-45023063D01*
X108667663Y-44961903D01*
X108881830Y-44862035D01*
X109075401Y-44726495D01*
X109242495Y-44559401D01*
X109372730Y-44373405D01*
X109427307Y-44329781D01*
X109496805Y-44322587D01*
X109559160Y-44354110D01*
X109575879Y-44373405D01*
X109705890Y-44559078D01*
X109872917Y-44726105D01*
X110066421Y-44861600D01*
X110280507Y-44961429D01*
X110280516Y-44961433D01*
X110494000Y-45018634D01*
X110494000Y-44123501D01*
X110601685Y-44172680D01*
X110708237Y-44188000D01*
X110779763Y-44188000D01*
X110886315Y-44172680D01*
X110994000Y-44123501D01*
X110994000Y-45018633D01*
X111207483Y-44961433D01*
X111207492Y-44961429D01*
X111421578Y-44861600D01*
X111615082Y-44726105D01*
X111782105Y-44559082D01*
X111917600Y-44365578D01*
X112017429Y-44151492D01*
X112017432Y-44151486D01*
X112074636Y-43938000D01*
X111177686Y-43938000D01*
X111203493Y-43897844D01*
X111244000Y-43759889D01*
X111244000Y-43616111D01*
X111203493Y-43478156D01*
X111177686Y-43438000D01*
X112074636Y-43438000D01*
X112074635Y-43437999D01*
X112017432Y-43224513D01*
X112017429Y-43224507D01*
X111996675Y-43180000D01*
X124120341Y-43180000D01*
X124140936Y-43415403D01*
X124140938Y-43415413D01*
X124202094Y-43643655D01*
X124202096Y-43643659D01*
X124202097Y-43643663D01*
X124210889Y-43662517D01*
X124301964Y-43857828D01*
X124301965Y-43857830D01*
X124437505Y-44051402D01*
X124604597Y-44218494D01*
X124798169Y-44354034D01*
X124798171Y-44354035D01*
X125012337Y-44453903D01*
X125012343Y-44453904D01*
X125012344Y-44453905D01*
X125029911Y-44458612D01*
X125240592Y-44515063D01*
X125417034Y-44530500D01*
X125534966Y-44530500D01*
X125711408Y-44515063D01*
X125939663Y-44453903D01*
X126153829Y-44354035D01*
X126347401Y-44218495D01*
X126514495Y-44051401D01*
X126650035Y-43857830D01*
X126749903Y-43643663D01*
X126811063Y-43415408D01*
X126831659Y-43180000D01*
X126811063Y-42944592D01*
X126761082Y-42758058D01*
X126749905Y-42716344D01*
X126749904Y-42716343D01*
X126749903Y-42716337D01*
X126650035Y-42502171D01*
X126650034Y-42502169D01*
X126514494Y-42308597D01*
X126347402Y-42141505D01*
X126153830Y-42005965D01*
X126153828Y-42005964D01*
X126034885Y-41950500D01*
X125939663Y-41906097D01*
X125939659Y-41906096D01*
X125939655Y-41906094D01*
X125711413Y-41844938D01*
X125711403Y-41844936D01*
X125534966Y-41829500D01*
X125417034Y-41829500D01*
X125240596Y-41844936D01*
X125240586Y-41844938D01*
X125012344Y-41906094D01*
X125012335Y-41906098D01*
X124798171Y-42005964D01*
X124798169Y-42005965D01*
X124604597Y-42141505D01*
X124437506Y-42308597D01*
X124437501Y-42308604D01*
X124301967Y-42502165D01*
X124301965Y-42502169D01*
X124202098Y-42716335D01*
X124202094Y-42716344D01*
X124140938Y-42944586D01*
X124140936Y-42944596D01*
X124120341Y-43179999D01*
X124120341Y-43180000D01*
X111996675Y-43180000D01*
X111917600Y-43010422D01*
X111917599Y-43010420D01*
X111782113Y-42816926D01*
X111782108Y-42816920D01*
X111615082Y-42649894D01*
X111421578Y-42514399D01*
X111207492Y-42414570D01*
X111207486Y-42414567D01*
X110994000Y-42357364D01*
X110994000Y-43252498D01*
X110886315Y-43203320D01*
X110779763Y-43188000D01*
X110708237Y-43188000D01*
X110601685Y-43203320D01*
X110494000Y-43252498D01*
X110494000Y-42357364D01*
X110493999Y-42357364D01*
X110280513Y-42414567D01*
X110280507Y-42414570D01*
X110066422Y-42514399D01*
X110066420Y-42514400D01*
X109872926Y-42649886D01*
X109872920Y-42649891D01*
X109705891Y-42816920D01*
X109705890Y-42816922D01*
X109575880Y-43002595D01*
X109521303Y-43046219D01*
X109451804Y-43053412D01*
X109389450Y-43021890D01*
X109372730Y-43002594D01*
X109242494Y-42816597D01*
X109075402Y-42649506D01*
X109075395Y-42649501D01*
X108881834Y-42513967D01*
X108881830Y-42513965D01*
X108856538Y-42502171D01*
X108667663Y-42414097D01*
X108667659Y-42414096D01*
X108667655Y-42414094D01*
X108439413Y-42352938D01*
X108439403Y-42352936D01*
X108204001Y-42332341D01*
X108203999Y-42332341D01*
X107968596Y-42352936D01*
X107968586Y-42352938D01*
X107740344Y-42414094D01*
X107740335Y-42414098D01*
X107526171Y-42513964D01*
X107526169Y-42513965D01*
X107332597Y-42649505D01*
X107165505Y-42816597D01*
X107035575Y-43002158D01*
X106980998Y-43045783D01*
X106911500Y-43052977D01*
X106849145Y-43021454D01*
X106832425Y-43002158D01*
X106702494Y-42816597D01*
X106535402Y-42649506D01*
X106535395Y-42649501D01*
X106341834Y-42513967D01*
X106341830Y-42513965D01*
X106316538Y-42502171D01*
X106127663Y-42414097D01*
X106127659Y-42414096D01*
X106127655Y-42414094D01*
X105899413Y-42352938D01*
X105899403Y-42352936D01*
X105664001Y-42332341D01*
X105663999Y-42332341D01*
X105428596Y-42352936D01*
X105428586Y-42352938D01*
X105200344Y-42414094D01*
X105200335Y-42414098D01*
X104986171Y-42513964D01*
X104986169Y-42513965D01*
X104792600Y-42649503D01*
X104670673Y-42771430D01*
X104609350Y-42804914D01*
X104539658Y-42799930D01*
X104483725Y-42758058D01*
X104466810Y-42727081D01*
X104417797Y-42595671D01*
X104417793Y-42595664D01*
X104331547Y-42480455D01*
X104331544Y-42480452D01*
X104216335Y-42394206D01*
X104216328Y-42394202D01*
X104081482Y-42343908D01*
X104081483Y-42343908D01*
X104021883Y-42337501D01*
X104021881Y-42337500D01*
X104021873Y-42337500D01*
X104021864Y-42337500D01*
X102226129Y-42337500D01*
X102226123Y-42337501D01*
X102166516Y-42343908D01*
X102031671Y-42394202D01*
X102031664Y-42394206D01*
X101916455Y-42480452D01*
X101916452Y-42480455D01*
X101830206Y-42595664D01*
X101830202Y-42595671D01*
X101779908Y-42730517D01*
X101773501Y-42790116D01*
X101773500Y-42790135D01*
X101773500Y-44585870D01*
X88740724Y-44585870D01*
X88675879Y-44458604D01*
X88673863Y-44454233D01*
X88611462Y-44303582D01*
X88578800Y-44218495D01*
X88553325Y-44152132D01*
X88551634Y-44147085D01*
X88542183Y-44114281D01*
X88506093Y-43989009D01*
X88504221Y-43982024D01*
X88500000Y-43949948D01*
X88500000Y-43180000D01*
X90084341Y-43180000D01*
X90104936Y-43415403D01*
X90104938Y-43415413D01*
X90166094Y-43643655D01*
X90166096Y-43643659D01*
X90166097Y-43643663D01*
X90174889Y-43662517D01*
X90265964Y-43857828D01*
X90265965Y-43857830D01*
X90401505Y-44051402D01*
X90568597Y-44218494D01*
X90762169Y-44354034D01*
X90762171Y-44354035D01*
X90976337Y-44453903D01*
X90976343Y-44453904D01*
X90976344Y-44453905D01*
X90993911Y-44458612D01*
X91204592Y-44515063D01*
X91381034Y-44530500D01*
X91498966Y-44530500D01*
X91675408Y-44515063D01*
X91903663Y-44453903D01*
X92117829Y-44354035D01*
X92311401Y-44218495D01*
X92478495Y-44051401D01*
X92614035Y-43857830D01*
X92713903Y-43643663D01*
X92775063Y-43415408D01*
X92795659Y-43180000D01*
X92775063Y-42944592D01*
X92725082Y-42758058D01*
X92713905Y-42716344D01*
X92713904Y-42716343D01*
X92713903Y-42716337D01*
X92614035Y-42502171D01*
X92614034Y-42502169D01*
X92478494Y-42308597D01*
X92311402Y-42141505D01*
X92117830Y-42005965D01*
X92117828Y-42005964D01*
X91998885Y-41950500D01*
X91903663Y-41906097D01*
X91903659Y-41906096D01*
X91903655Y-41906094D01*
X91675413Y-41844938D01*
X91675403Y-41844936D01*
X91498966Y-41829500D01*
X91381034Y-41829500D01*
X91204596Y-41844936D01*
X91204586Y-41844938D01*
X90976344Y-41906094D01*
X90976335Y-41906098D01*
X90762171Y-42005964D01*
X90762169Y-42005965D01*
X90568597Y-42141505D01*
X90401506Y-42308597D01*
X90401501Y-42308604D01*
X90265967Y-42502165D01*
X90265965Y-42502169D01*
X90166098Y-42716335D01*
X90166094Y-42716344D01*
X90104938Y-42944586D01*
X90104936Y-42944596D01*
X90084341Y-43179999D01*
X90084341Y-43180000D01*
X88500000Y-43180000D01*
X88500000Y-41200000D01*
X103994540Y-41200000D01*
X104014326Y-41388256D01*
X104014327Y-41388259D01*
X104072818Y-41568277D01*
X104072821Y-41568284D01*
X104167467Y-41732216D01*
X104255062Y-41829500D01*
X104294129Y-41872888D01*
X104447265Y-41984148D01*
X104447270Y-41984151D01*
X104620192Y-42061142D01*
X104620197Y-42061144D01*
X104805354Y-42100500D01*
X104805355Y-42100500D01*
X104994644Y-42100500D01*
X104994646Y-42100500D01*
X105179803Y-42061144D01*
X105352730Y-41984151D01*
X105354776Y-41982664D01*
X105366452Y-41974182D01*
X105432258Y-41950702D01*
X105439337Y-41950500D01*
X105960663Y-41950500D01*
X106027702Y-41970185D01*
X106033548Y-41974182D01*
X106047265Y-41984148D01*
X106047270Y-41984151D01*
X106220192Y-42061142D01*
X106220197Y-42061144D01*
X106405354Y-42100500D01*
X106405355Y-42100500D01*
X106594644Y-42100500D01*
X106594646Y-42100500D01*
X106779803Y-42061144D01*
X106952730Y-41984151D01*
X107105871Y-41872888D01*
X107232533Y-41732216D01*
X107327179Y-41568284D01*
X107385674Y-41388256D01*
X107405460Y-41200000D01*
X107385674Y-41011744D01*
X107327179Y-40831716D01*
X107232533Y-40667784D01*
X107105871Y-40527112D01*
X107105870Y-40527111D01*
X106952734Y-40415851D01*
X106952729Y-40415848D01*
X106779807Y-40338857D01*
X106779802Y-40338855D01*
X106634001Y-40307865D01*
X106594646Y-40299500D01*
X106405354Y-40299500D01*
X106372897Y-40306398D01*
X106220197Y-40338855D01*
X106220192Y-40338857D01*
X106047270Y-40415848D01*
X106047265Y-40415851D01*
X106033548Y-40425818D01*
X105967742Y-40449298D01*
X105960663Y-40449500D01*
X105439337Y-40449500D01*
X105372298Y-40429815D01*
X105366452Y-40425818D01*
X105352734Y-40415851D01*
X105352729Y-40415848D01*
X105179807Y-40338857D01*
X105179802Y-40338855D01*
X105034001Y-40307865D01*
X104994646Y-40299500D01*
X104805354Y-40299500D01*
X104772897Y-40306398D01*
X104620197Y-40338855D01*
X104620192Y-40338857D01*
X104447270Y-40415848D01*
X104447265Y-40415851D01*
X104294129Y-40527111D01*
X104167466Y-40667785D01*
X104072821Y-40831715D01*
X104072818Y-40831722D01*
X104014327Y-41011740D01*
X104014326Y-41011744D01*
X103994540Y-41200000D01*
X88500000Y-41200000D01*
X88500000Y-39100000D01*
X108985040Y-39100000D01*
X109004826Y-39288256D01*
X109004827Y-39288259D01*
X109063318Y-39468277D01*
X109063321Y-39468284D01*
X109157967Y-39632216D01*
X109284629Y-39772888D01*
X109437765Y-39884148D01*
X109437770Y-39884151D01*
X109610692Y-39961142D01*
X109610697Y-39961144D01*
X109795854Y-40000500D01*
X109795855Y-40000500D01*
X109985144Y-40000500D01*
X109985146Y-40000500D01*
X110170303Y-39961144D01*
X110343230Y-39884151D01*
X110345276Y-39882664D01*
X110356952Y-39874182D01*
X110422758Y-39850702D01*
X110429837Y-39850500D01*
X110850163Y-39850500D01*
X110917202Y-39870185D01*
X110923048Y-39874182D01*
X110936765Y-39884148D01*
X110936770Y-39884151D01*
X111109692Y-39961142D01*
X111109697Y-39961144D01*
X111294854Y-40000500D01*
X111294855Y-40000500D01*
X111484144Y-40000500D01*
X111484146Y-40000500D01*
X111669303Y-39961144D01*
X111842230Y-39884151D01*
X111995371Y-39772888D01*
X112122033Y-39632216D01*
X112216679Y-39468284D01*
X112275174Y-39288256D01*
X112294960Y-39100000D01*
X112275174Y-38911744D01*
X112216679Y-38731716D01*
X112122033Y-38567784D01*
X111995371Y-38427112D01*
X111995370Y-38427111D01*
X111842234Y-38315851D01*
X111842229Y-38315848D01*
X111669307Y-38238857D01*
X111669302Y-38238855D01*
X111523501Y-38207865D01*
X111484146Y-38199500D01*
X111294854Y-38199500D01*
X111262397Y-38206398D01*
X111109697Y-38238855D01*
X111109692Y-38238857D01*
X110936770Y-38315848D01*
X110936765Y-38315851D01*
X110923048Y-38325818D01*
X110857242Y-38349298D01*
X110850163Y-38349500D01*
X110429837Y-38349500D01*
X110362798Y-38329815D01*
X110356952Y-38325818D01*
X110343234Y-38315851D01*
X110343229Y-38315848D01*
X110170307Y-38238857D01*
X110170302Y-38238855D01*
X110024501Y-38207865D01*
X109985146Y-38199500D01*
X109795854Y-38199500D01*
X109763397Y-38206398D01*
X109610697Y-38238855D01*
X109610692Y-38238857D01*
X109437770Y-38315848D01*
X109437765Y-38315851D01*
X109284629Y-38427111D01*
X109157966Y-38567785D01*
X109063321Y-38731715D01*
X109063318Y-38731722D01*
X109004827Y-38911740D01*
X109004826Y-38911744D01*
X108985040Y-39100000D01*
X88500000Y-39100000D01*
X88500000Y-32741204D01*
X120858786Y-32741204D01*
X120888397Y-32959802D01*
X120888398Y-32959806D01*
X120956564Y-33169600D01*
X121061095Y-33363850D01*
X121061097Y-33363853D01*
X121198634Y-33536320D01*
X121364751Y-33681451D01*
X121364759Y-33681458D01*
X121466559Y-33742281D01*
X121554126Y-33794600D01*
X121760654Y-33872111D01*
X121804063Y-33879988D01*
X121977699Y-33911500D01*
X121977703Y-33911500D01*
X122693025Y-33911500D01*
X122693032Y-33911500D01*
X122847485Y-33897598D01*
X122857707Y-33896679D01*
X123070338Y-33837997D01*
X123070343Y-33837994D01*
X123070350Y-33837993D01*
X123269098Y-33742281D01*
X123447563Y-33612619D01*
X123600007Y-33453175D01*
X123721531Y-33269073D01*
X123808230Y-33066231D01*
X123857317Y-32851168D01*
X123860307Y-32784593D01*
X124758832Y-32784593D01*
X124768605Y-32989756D01*
X124817029Y-33189362D01*
X124870528Y-33306508D01*
X124902352Y-33376195D01*
X124902356Y-33376201D01*
X125021489Y-33543501D01*
X125021495Y-33543507D01*
X125170147Y-33685246D01*
X125342933Y-33796290D01*
X125447097Y-33837991D01*
X125533618Y-33872629D01*
X125684881Y-33901782D01*
X125735301Y-33911500D01*
X125735302Y-33911500D01*
X126539226Y-33911500D01*
X126539232Y-33911500D01*
X126692466Y-33896868D01*
X126889541Y-33839001D01*
X127072104Y-33744884D01*
X127233556Y-33617916D01*
X127368061Y-33462689D01*
X127470759Y-33284811D01*
X127537937Y-33090712D01*
X127567168Y-32887407D01*
X127557395Y-32682244D01*
X127508971Y-32482638D01*
X127423647Y-32295804D01*
X127390742Y-32249595D01*
X127304510Y-32128498D01*
X127304504Y-32128492D01*
X127155852Y-31986753D01*
X126983066Y-31875709D01*
X126792391Y-31799374D01*
X126792384Y-31799371D01*
X126792382Y-31799371D01*
X126792379Y-31799370D01*
X126792378Y-31799370D01*
X126590699Y-31760500D01*
X126590698Y-31760500D01*
X125786768Y-31760500D01*
X125633534Y-31775132D01*
X125633530Y-31775133D01*
X125436462Y-31832997D01*
X125253891Y-31927118D01*
X125092446Y-32054081D01*
X125092443Y-32054084D01*
X124957936Y-32209313D01*
X124855242Y-32387185D01*
X124788064Y-32581282D01*
X124788063Y-32581287D01*
X124788063Y-32581288D01*
X124758832Y-32784593D01*
X123860307Y-32784593D01*
X123867214Y-32630796D01*
X123837603Y-32412198D01*
X123826904Y-32379270D01*
X123824907Y-32309429D01*
X123860987Y-32249595D01*
X123871936Y-32240641D01*
X123901504Y-32219159D01*
X123906906Y-32215650D01*
X123945216Y-32193533D01*
X123978071Y-32163948D01*
X123983098Y-32159876D01*
X124018871Y-32133888D01*
X124048453Y-32101032D01*
X124053032Y-32096453D01*
X124085888Y-32066871D01*
X124111876Y-32031098D01*
X124115948Y-32026071D01*
X124145533Y-31993216D01*
X124167650Y-31954906D01*
X124171159Y-31949504D01*
X124197151Y-31913730D01*
X124215136Y-31873333D01*
X124218063Y-31867586D01*
X124240179Y-31829284D01*
X124253842Y-31787228D01*
X124256158Y-31781197D01*
X124274144Y-31740803D01*
X124283336Y-31697551D01*
X124285009Y-31691308D01*
X124298674Y-31649256D01*
X124303295Y-31605283D01*
X124304307Y-31598894D01*
X124313500Y-31555646D01*
X124313500Y-31511445D01*
X124313840Y-31504960D01*
X124314848Y-31495365D01*
X124318460Y-31461000D01*
X124314546Y-31423759D01*
X124313840Y-31417037D01*
X124313500Y-31410553D01*
X124313500Y-31366354D01*
X124304311Y-31323123D01*
X124303295Y-31316709D01*
X124301964Y-31304051D01*
X124298674Y-31272744D01*
X124285011Y-31230698D01*
X124283334Y-31224435D01*
X124281765Y-31217056D01*
X124274144Y-31181197D01*
X124256163Y-31140812D01*
X124253835Y-31134748D01*
X124240179Y-31092716D01*
X124233010Y-31080300D01*
X124218075Y-31054430D01*
X124215127Y-31048644D01*
X124206288Y-31028794D01*
X124197151Y-31008270D01*
X124197149Y-31008267D01*
X124197149Y-31008266D01*
X124171175Y-30972516D01*
X124167638Y-30967070D01*
X124145535Y-30928787D01*
X124145528Y-30928777D01*
X124115954Y-30895934D01*
X124111870Y-30890892D01*
X124085888Y-30855129D01*
X124085884Y-30855125D01*
X124053034Y-30825546D01*
X124048453Y-30820966D01*
X124018871Y-30788112D01*
X124018870Y-30788111D01*
X124018869Y-30788110D01*
X123983119Y-30762137D01*
X123978072Y-30758050D01*
X123945222Y-30728471D01*
X123945212Y-30728464D01*
X123906930Y-30706362D01*
X123906928Y-30706361D01*
X123906926Y-30706359D01*
X123901484Y-30702825D01*
X123865736Y-30676853D01*
X123865732Y-30676850D01*
X123825353Y-30658872D01*
X123819567Y-30655924D01*
X123781284Y-30633821D01*
X123781281Y-30633820D01*
X123781277Y-30633818D01*
X123739242Y-30620160D01*
X123733179Y-30617833D01*
X123692803Y-30599856D01*
X123649569Y-30590666D01*
X123643301Y-30588987D01*
X123632861Y-30585595D01*
X123601256Y-30575325D01*
X123557291Y-30570704D01*
X123550880Y-30569688D01*
X123507647Y-30560500D01*
X123507646Y-30560500D01*
X123318354Y-30560500D01*
X123318351Y-30560500D01*
X123275119Y-30569688D01*
X123268710Y-30570703D01*
X123224743Y-30575325D01*
X123182705Y-30588985D01*
X123176434Y-30590665D01*
X123133195Y-30599856D01*
X123092815Y-30617834D01*
X123086755Y-30620160D01*
X123044719Y-30633819D01*
X123006430Y-30655924D01*
X123000647Y-30658871D01*
X122960267Y-30676850D01*
X122924512Y-30702826D01*
X122919069Y-30706361D01*
X122880788Y-30728463D01*
X122880785Y-30728465D01*
X122847935Y-30758044D01*
X122842889Y-30762130D01*
X122807125Y-30788115D01*
X122777550Y-30820960D01*
X122772960Y-30825550D01*
X122740115Y-30855125D01*
X122714130Y-30890889D01*
X122710044Y-30895935D01*
X122680465Y-30928785D01*
X122680463Y-30928788D01*
X122658361Y-30967069D01*
X122654826Y-30972512D01*
X122628850Y-31008267D01*
X122610871Y-31048647D01*
X122607924Y-31054430D01*
X122585819Y-31092719D01*
X122572160Y-31134755D01*
X122569834Y-31140815D01*
X122551856Y-31181195D01*
X122542665Y-31224434D01*
X122540985Y-31230705D01*
X122527325Y-31272743D01*
X122522703Y-31316710D01*
X122521688Y-31323118D01*
X122513366Y-31362276D01*
X122480176Y-31423759D01*
X122419015Y-31457538D01*
X122392075Y-31460500D01*
X122032968Y-31460500D01*
X122002306Y-31463259D01*
X121868292Y-31475320D01*
X121655661Y-31534002D01*
X121655646Y-31534008D01*
X121456908Y-31629715D01*
X121456900Y-31629719D01*
X121278442Y-31759376D01*
X121278434Y-31759382D01*
X121125994Y-31918822D01*
X121004469Y-32102926D01*
X120979315Y-32161778D01*
X120922030Y-32295804D01*
X120917770Y-32305770D01*
X120917767Y-32305779D01*
X120868684Y-32520826D01*
X120868682Y-32520837D01*
X120863744Y-32630796D01*
X120858786Y-32741204D01*
X88500000Y-32741204D01*
X88500000Y-27685055D01*
X89901500Y-27685055D01*
X89942210Y-27850226D01*
X90021263Y-28000849D01*
X90021266Y-28000852D01*
X90134071Y-28128183D01*
X90224318Y-28190476D01*
X90274068Y-28224817D01*
X90274069Y-28224817D01*
X90274070Y-28224818D01*
X90433128Y-28285140D01*
X90509028Y-28294356D01*
X90559626Y-28300500D01*
X90559628Y-28300500D01*
X90644374Y-28300500D01*
X90686538Y-28295380D01*
X90770872Y-28285140D01*
X90929930Y-28224818D01*
X91069929Y-28128183D01*
X91182734Y-28000852D01*
X91261790Y-27850225D01*
X91302500Y-27685056D01*
X91302500Y-27514944D01*
X91261790Y-27349775D01*
X91261789Y-27349773D01*
X91182736Y-27199150D01*
X91163560Y-27177505D01*
X91069929Y-27071817D01*
X91007148Y-27028482D01*
X90929931Y-26975182D01*
X90770874Y-26914860D01*
X90770868Y-26914859D01*
X90644374Y-26899500D01*
X90644372Y-26899500D01*
X90559628Y-26899500D01*
X90559626Y-26899500D01*
X90433131Y-26914859D01*
X90433125Y-26914860D01*
X90274068Y-26975182D01*
X90134072Y-27071816D01*
X90021263Y-27199150D01*
X89942210Y-27349773D01*
X89901500Y-27514944D01*
X89901500Y-27685055D01*
X88500000Y-27685055D01*
X88500000Y-24685055D01*
X89901500Y-24685055D01*
X89942210Y-24850226D01*
X90021263Y-25000849D01*
X90021266Y-25000852D01*
X90134071Y-25128183D01*
X90224318Y-25190476D01*
X90274068Y-25224817D01*
X90274069Y-25224817D01*
X90274070Y-25224818D01*
X90433128Y-25285140D01*
X90509028Y-25294356D01*
X90559626Y-25300500D01*
X90559628Y-25300500D01*
X90644374Y-25300500D01*
X90686538Y-25295380D01*
X90720930Y-25291204D01*
X120858786Y-25291204D01*
X120888397Y-25509802D01*
X120888398Y-25509806D01*
X120956564Y-25719600D01*
X121061095Y-25913850D01*
X121061097Y-25913853D01*
X121198634Y-26086320D01*
X121364751Y-26231451D01*
X121364759Y-26231458D01*
X121554119Y-26344596D01*
X121554126Y-26344600D01*
X121760654Y-26422111D01*
X121804063Y-26429988D01*
X121977699Y-26461500D01*
X121977703Y-26461500D01*
X122392075Y-26461500D01*
X122459114Y-26481185D01*
X122504869Y-26533989D01*
X122513366Y-26559721D01*
X122521689Y-26598880D01*
X122522704Y-26605291D01*
X122527325Y-26649256D01*
X122540986Y-26691296D01*
X122542666Y-26697569D01*
X122551856Y-26740803D01*
X122551855Y-26740803D01*
X122569833Y-26781179D01*
X122572160Y-26787242D01*
X122585818Y-26829277D01*
X122585820Y-26829281D01*
X122585821Y-26829284D01*
X122607923Y-26867565D01*
X122607924Y-26867567D01*
X122610870Y-26873349D01*
X122628849Y-26913730D01*
X122654823Y-26949482D01*
X122654825Y-26949484D01*
X122658359Y-26954926D01*
X122664648Y-26965818D01*
X122680464Y-26993212D01*
X122680471Y-26993222D01*
X122710050Y-27026072D01*
X122714137Y-27031119D01*
X122740110Y-27066869D01*
X122740111Y-27066870D01*
X122740112Y-27066871D01*
X122772966Y-27096453D01*
X122777546Y-27101034D01*
X122807128Y-27133887D01*
X122807129Y-27133888D01*
X122842887Y-27159867D01*
X122847934Y-27163954D01*
X122880777Y-27193528D01*
X122880787Y-27193535D01*
X122919070Y-27215638D01*
X122924516Y-27219175D01*
X122960266Y-27245149D01*
X122960269Y-27245150D01*
X122960270Y-27245151D01*
X122970535Y-27249721D01*
X123000644Y-27263127D01*
X123006430Y-27266075D01*
X123032300Y-27281010D01*
X123044716Y-27288179D01*
X123086755Y-27301837D01*
X123092812Y-27304163D01*
X123133193Y-27322142D01*
X123133192Y-27322142D01*
X123133197Y-27322144D01*
X123167720Y-27329481D01*
X123176435Y-27331334D01*
X123182698Y-27333011D01*
X123224744Y-27346674D01*
X123254231Y-27349773D01*
X123268709Y-27351295D01*
X123275123Y-27352311D01*
X123318354Y-27361500D01*
X123318355Y-27361500D01*
X123507643Y-27361500D01*
X123507646Y-27361500D01*
X123550894Y-27352307D01*
X123557283Y-27351295D01*
X123601256Y-27346674D01*
X123643308Y-27333009D01*
X123649551Y-27331336D01*
X123692803Y-27322144D01*
X123733197Y-27304158D01*
X123739228Y-27301842D01*
X123781284Y-27288179D01*
X123819586Y-27266063D01*
X123825333Y-27263136D01*
X123865730Y-27245151D01*
X123901504Y-27219159D01*
X123906906Y-27215650D01*
X123945216Y-27193533D01*
X123978071Y-27163948D01*
X123983098Y-27159876D01*
X124018871Y-27133888D01*
X124048453Y-27101032D01*
X124053032Y-27096453D01*
X124085888Y-27066871D01*
X124111876Y-27031098D01*
X124115948Y-27026071D01*
X124145533Y-26993216D01*
X124167650Y-26954906D01*
X124171159Y-26949504D01*
X124197151Y-26913730D01*
X124215136Y-26873333D01*
X124218063Y-26867586D01*
X124240179Y-26829284D01*
X124253842Y-26787228D01*
X124256158Y-26781197D01*
X124274144Y-26740803D01*
X124283336Y-26697551D01*
X124285013Y-26691296D01*
X124298674Y-26649256D01*
X124303295Y-26605283D01*
X124304307Y-26598894D01*
X124313500Y-26555646D01*
X124313500Y-26511445D01*
X124313840Y-26504960D01*
X124314848Y-26495365D01*
X124318460Y-26461000D01*
X124314373Y-26422111D01*
X124313840Y-26417037D01*
X124313500Y-26410553D01*
X124313500Y-26366354D01*
X124304311Y-26323123D01*
X124303295Y-26316709D01*
X124301964Y-26304051D01*
X124298674Y-26272744D01*
X124285011Y-26230698D01*
X124283334Y-26224435D01*
X124281765Y-26217056D01*
X124274144Y-26181197D01*
X124256163Y-26140812D01*
X124253835Y-26134748D01*
X124240179Y-26092716D01*
X124233010Y-26080300D01*
X124218075Y-26054430D01*
X124215127Y-26048644D01*
X124206288Y-26028794D01*
X124197151Y-26008270D01*
X124197149Y-26008267D01*
X124197149Y-26008266D01*
X124171175Y-25972516D01*
X124167638Y-25967070D01*
X124145535Y-25928787D01*
X124145528Y-25928777D01*
X124115954Y-25895934D01*
X124111870Y-25890892D01*
X124085888Y-25855129D01*
X124085887Y-25855128D01*
X124053034Y-25825546D01*
X124048453Y-25820966D01*
X124018871Y-25788112D01*
X124018870Y-25788111D01*
X124018869Y-25788110D01*
X123983119Y-25762137D01*
X123978072Y-25758050D01*
X123945222Y-25728471D01*
X123945212Y-25728464D01*
X123906930Y-25706362D01*
X123901484Y-25702825D01*
X123870760Y-25680503D01*
X123828095Y-25625172D01*
X123822116Y-25555559D01*
X123822755Y-25552592D01*
X123826813Y-25534814D01*
X123857317Y-25401168D01*
X123867214Y-25180796D01*
X123847410Y-25034593D01*
X124758832Y-25034593D01*
X124768605Y-25239756D01*
X124817029Y-25439362D01*
X124868739Y-25552592D01*
X124902352Y-25626195D01*
X124902356Y-25626201D01*
X125021489Y-25793501D01*
X125021495Y-25793507D01*
X125170147Y-25935246D01*
X125342933Y-26046290D01*
X125363266Y-26054430D01*
X125533618Y-26122629D01*
X125684881Y-26151782D01*
X125735301Y-26161500D01*
X125735302Y-26161500D01*
X126539226Y-26161500D01*
X126539232Y-26161500D01*
X126692466Y-26146868D01*
X126889541Y-26089001D01*
X127072104Y-25994884D01*
X127233556Y-25867916D01*
X127368061Y-25712689D01*
X127470759Y-25534811D01*
X127537937Y-25340712D01*
X127567168Y-25137407D01*
X127557395Y-24932244D01*
X127508971Y-24732638D01*
X127423647Y-24545804D01*
X127401672Y-24514944D01*
X127304510Y-24378498D01*
X127304504Y-24378492D01*
X127155852Y-24236753D01*
X126983066Y-24125709D01*
X126792391Y-24049374D01*
X126792384Y-24049371D01*
X126792382Y-24049371D01*
X126792379Y-24049370D01*
X126792378Y-24049370D01*
X126590699Y-24010500D01*
X126590698Y-24010500D01*
X125786768Y-24010500D01*
X125633534Y-24025132D01*
X125633530Y-24025133D01*
X125436462Y-24082997D01*
X125253891Y-24177118D01*
X125092446Y-24304081D01*
X125092443Y-24304084D01*
X124957936Y-24459313D01*
X124855242Y-24637185D01*
X124788064Y-24831282D01*
X124788063Y-24831287D01*
X124788063Y-24831288D01*
X124758832Y-25034593D01*
X123847410Y-25034593D01*
X123837603Y-24962198D01*
X123769436Y-24752401D01*
X123664903Y-24558147D01*
X123593669Y-24468822D01*
X123527365Y-24385679D01*
X123361248Y-24240548D01*
X123361240Y-24240541D01*
X123171880Y-24127403D01*
X123171877Y-24127401D01*
X123171874Y-24127400D01*
X123023770Y-24071816D01*
X122965344Y-24049888D01*
X122748301Y-24010500D01*
X122748297Y-24010500D01*
X122032968Y-24010500D01*
X122002306Y-24013259D01*
X121868292Y-24025320D01*
X121655661Y-24084002D01*
X121655646Y-24084008D01*
X121456908Y-24179715D01*
X121456900Y-24179719D01*
X121278442Y-24309376D01*
X121278434Y-24309382D01*
X121125994Y-24468822D01*
X121004469Y-24652926D01*
X121004469Y-24652927D01*
X120920140Y-24850226D01*
X120917770Y-24855770D01*
X120917767Y-24855779D01*
X120868684Y-25070826D01*
X120868682Y-25070837D01*
X120861096Y-25239758D01*
X120858786Y-25291204D01*
X90720930Y-25291204D01*
X90770872Y-25285140D01*
X90929930Y-25224818D01*
X91069929Y-25128183D01*
X91182734Y-25000852D01*
X91203022Y-24962198D01*
X91258875Y-24855779D01*
X91261790Y-24850225D01*
X91302500Y-24685056D01*
X91302500Y-24514944D01*
X91261790Y-24349775D01*
X91240590Y-24309382D01*
X91182736Y-24199150D01*
X91163215Y-24177116D01*
X91069929Y-24071817D01*
X91020177Y-24037475D01*
X90929931Y-23975182D01*
X90770874Y-23914860D01*
X90770868Y-23914859D01*
X90644374Y-23899500D01*
X90644372Y-23899500D01*
X90559628Y-23899500D01*
X90559626Y-23899500D01*
X90433131Y-23914859D01*
X90433125Y-23914860D01*
X90274068Y-23975182D01*
X90134072Y-24071816D01*
X90021263Y-24199150D01*
X89942210Y-24349773D01*
X89901500Y-24514944D01*
X89901500Y-24685055D01*
X88500000Y-24685055D01*
X88500000Y-18796000D01*
X90084341Y-18796000D01*
X90104936Y-19031403D01*
X90104938Y-19031413D01*
X90166094Y-19259655D01*
X90166096Y-19259659D01*
X90166097Y-19259663D01*
X90197080Y-19326105D01*
X90265964Y-19473828D01*
X90265965Y-19473830D01*
X90401505Y-19667402D01*
X90568597Y-19834494D01*
X90762169Y-19970034D01*
X90762171Y-19970035D01*
X90976337Y-20069903D01*
X91204592Y-20131063D01*
X91381034Y-20146500D01*
X91498966Y-20146500D01*
X91675408Y-20131063D01*
X91903663Y-20069903D01*
X92117829Y-19970035D01*
X92311401Y-19834495D01*
X92478495Y-19667401D01*
X92614035Y-19473830D01*
X92713903Y-19259663D01*
X92775063Y-19031408D01*
X92795659Y-18796000D01*
X92775063Y-18560592D01*
X92769010Y-18538000D01*
X96713364Y-18538000D01*
X96770567Y-18751486D01*
X96770570Y-18751492D01*
X96870399Y-18965578D01*
X97005894Y-19159082D01*
X97172917Y-19326105D01*
X97366421Y-19461600D01*
X97580507Y-19561429D01*
X97580516Y-19561433D01*
X97794000Y-19618634D01*
X97794000Y-18723501D01*
X97901685Y-18772680D01*
X98008237Y-18788000D01*
X98079763Y-18788000D01*
X98186315Y-18772680D01*
X98294000Y-18723501D01*
X98294000Y-19618633D01*
X98507483Y-19561433D01*
X98507492Y-19561429D01*
X98721578Y-19461600D01*
X98915082Y-19326105D01*
X99082105Y-19159082D01*
X99212119Y-18973405D01*
X99266696Y-18929781D01*
X99336195Y-18922588D01*
X99398549Y-18954110D01*
X99415269Y-18973405D01*
X99545505Y-19159401D01*
X99712599Y-19326495D01*
X99809384Y-19394265D01*
X99906165Y-19462032D01*
X99906167Y-19462033D01*
X99906170Y-19462035D01*
X100120337Y-19561903D01*
X100348592Y-19623063D01*
X100525034Y-19638500D01*
X100583999Y-19643659D01*
X100584000Y-19643659D01*
X100584001Y-19643659D01*
X100642966Y-19638500D01*
X100819408Y-19623063D01*
X101047663Y-19561903D01*
X101261830Y-19462035D01*
X101455401Y-19326495D01*
X101622495Y-19159401D01*
X101752425Y-18973842D01*
X101807002Y-18930217D01*
X101876500Y-18923023D01*
X101938855Y-18954546D01*
X101955575Y-18973842D01*
X102085281Y-19159082D01*
X102085505Y-19159401D01*
X102252599Y-19326495D01*
X102349384Y-19394265D01*
X102446165Y-19462032D01*
X102446167Y-19462033D01*
X102446170Y-19462035D01*
X102660337Y-19561903D01*
X102888592Y-19623063D01*
X103065034Y-19638500D01*
X103123999Y-19643659D01*
X103124000Y-19643659D01*
X103124001Y-19643659D01*
X103182966Y-19638500D01*
X103359408Y-19623063D01*
X103587663Y-19561903D01*
X103801830Y-19462035D01*
X103995401Y-19326495D01*
X104117329Y-19204566D01*
X104178648Y-19171084D01*
X104248340Y-19176068D01*
X104304274Y-19217939D01*
X104321189Y-19248917D01*
X104370202Y-19380328D01*
X104370206Y-19380335D01*
X104456452Y-19495544D01*
X104456455Y-19495547D01*
X104571664Y-19581793D01*
X104571671Y-19581797D01*
X104706517Y-19632091D01*
X104706516Y-19632091D01*
X104713444Y-19632835D01*
X104766127Y-19638500D01*
X106561872Y-19638499D01*
X106621483Y-19632091D01*
X106756331Y-19581796D01*
X106871546Y-19495546D01*
X106957796Y-19380331D01*
X107008091Y-19245483D01*
X107014500Y-19185873D01*
X107014500Y-18538000D01*
X110429364Y-18538000D01*
X110486567Y-18751486D01*
X110486570Y-18751492D01*
X110586399Y-18965578D01*
X110721894Y-19159082D01*
X110888917Y-19326105D01*
X111082421Y-19461600D01*
X111296507Y-19561429D01*
X111296516Y-19561433D01*
X111510000Y-19618634D01*
X111510000Y-18723501D01*
X111617685Y-18772680D01*
X111724237Y-18788000D01*
X111795763Y-18788000D01*
X111902315Y-18772680D01*
X112010000Y-18723501D01*
X112010000Y-19618633D01*
X112223483Y-19561433D01*
X112223492Y-19561429D01*
X112437578Y-19461600D01*
X112631082Y-19326105D01*
X112798105Y-19159082D01*
X112928119Y-18973405D01*
X112982696Y-18929781D01*
X113052195Y-18922588D01*
X113114549Y-18954110D01*
X113131269Y-18973405D01*
X113261505Y-19159401D01*
X113428599Y-19326495D01*
X113525384Y-19394265D01*
X113622165Y-19462032D01*
X113622167Y-19462033D01*
X113622170Y-19462035D01*
X113836337Y-19561903D01*
X114064592Y-19623063D01*
X114241034Y-19638500D01*
X114299999Y-19643659D01*
X114300000Y-19643659D01*
X114300001Y-19643659D01*
X114358966Y-19638500D01*
X114535408Y-19623063D01*
X114763663Y-19561903D01*
X114977830Y-19462035D01*
X115171401Y-19326495D01*
X115338495Y-19159401D01*
X115468425Y-18973842D01*
X115523002Y-18930217D01*
X115592500Y-18923023D01*
X115654855Y-18954546D01*
X115671575Y-18973842D01*
X115801281Y-19159082D01*
X115801505Y-19159401D01*
X115968599Y-19326495D01*
X116065384Y-19394265D01*
X116162165Y-19462032D01*
X116162167Y-19462033D01*
X116162170Y-19462035D01*
X116376337Y-19561903D01*
X116604592Y-19623063D01*
X116781034Y-19638500D01*
X116839999Y-19643659D01*
X116840000Y-19643659D01*
X116840001Y-19643659D01*
X116898966Y-19638500D01*
X117075408Y-19623063D01*
X117303663Y-19561903D01*
X117517830Y-19462035D01*
X117711401Y-19326495D01*
X117833329Y-19204566D01*
X117894648Y-19171084D01*
X117964340Y-19176068D01*
X118020274Y-19217939D01*
X118037189Y-19248917D01*
X118086202Y-19380328D01*
X118086206Y-19380335D01*
X118172452Y-19495544D01*
X118172455Y-19495547D01*
X118287664Y-19581793D01*
X118287671Y-19581797D01*
X118422517Y-19632091D01*
X118422516Y-19632091D01*
X118429444Y-19632835D01*
X118482127Y-19638500D01*
X120277872Y-19638499D01*
X120337483Y-19632091D01*
X120472331Y-19581796D01*
X120587546Y-19495546D01*
X120673796Y-19380331D01*
X120724091Y-19245483D01*
X120730500Y-19185873D01*
X120730500Y-18796000D01*
X124120341Y-18796000D01*
X124140936Y-19031403D01*
X124140938Y-19031413D01*
X124202094Y-19259655D01*
X124202096Y-19259659D01*
X124202097Y-19259663D01*
X124233080Y-19326105D01*
X124301964Y-19473828D01*
X124301965Y-19473830D01*
X124437505Y-19667402D01*
X124604597Y-19834494D01*
X124798169Y-19970034D01*
X124798171Y-19970035D01*
X125012337Y-20069903D01*
X125240592Y-20131063D01*
X125417034Y-20146500D01*
X125534966Y-20146500D01*
X125711408Y-20131063D01*
X125939663Y-20069903D01*
X126153829Y-19970035D01*
X126347401Y-19834495D01*
X126514495Y-19667401D01*
X126650035Y-19473830D01*
X126749903Y-19259663D01*
X126811063Y-19031408D01*
X126831659Y-18796000D01*
X126811063Y-18560592D01*
X126764626Y-18387285D01*
X126749905Y-18332344D01*
X126749904Y-18332343D01*
X126749903Y-18332337D01*
X126650035Y-18118171D01*
X126650034Y-18118169D01*
X126514494Y-17924597D01*
X126347402Y-17757505D01*
X126153830Y-17621965D01*
X126153828Y-17621964D01*
X126046746Y-17572031D01*
X125939663Y-17522097D01*
X125939659Y-17522096D01*
X125939655Y-17522094D01*
X125711413Y-17460938D01*
X125711403Y-17460936D01*
X125534966Y-17445500D01*
X125417034Y-17445500D01*
X125240596Y-17460936D01*
X125240586Y-17460938D01*
X125012344Y-17522094D01*
X125012335Y-17522098D01*
X124798171Y-17621964D01*
X124798169Y-17621965D01*
X124604597Y-17757505D01*
X124437506Y-17924597D01*
X124437501Y-17924604D01*
X124301967Y-18118165D01*
X124301965Y-18118169D01*
X124202098Y-18332335D01*
X124202094Y-18332344D01*
X124140938Y-18560586D01*
X124140936Y-18560596D01*
X124120341Y-18795999D01*
X124120341Y-18796000D01*
X120730500Y-18796000D01*
X120730499Y-17390128D01*
X120724091Y-17330517D01*
X120722810Y-17327083D01*
X120673797Y-17195671D01*
X120673793Y-17195664D01*
X120587547Y-17080455D01*
X120587544Y-17080452D01*
X120472335Y-16994206D01*
X120472328Y-16994202D01*
X120337482Y-16943908D01*
X120337483Y-16943908D01*
X120277883Y-16937501D01*
X120277881Y-16937500D01*
X120277873Y-16937500D01*
X120277864Y-16937500D01*
X118482129Y-16937500D01*
X118482123Y-16937501D01*
X118422516Y-16943908D01*
X118287671Y-16994202D01*
X118287664Y-16994206D01*
X118172455Y-17080452D01*
X118172452Y-17080455D01*
X118086206Y-17195664D01*
X118086203Y-17195669D01*
X118037189Y-17327083D01*
X117995317Y-17383016D01*
X117929853Y-17407433D01*
X117861580Y-17392581D01*
X117833326Y-17371430D01*
X117711402Y-17249506D01*
X117711395Y-17249501D01*
X117517834Y-17113967D01*
X117517830Y-17113965D01*
X117462999Y-17088397D01*
X117303663Y-17014097D01*
X117303659Y-17014096D01*
X117303655Y-17014094D01*
X117075413Y-16952938D01*
X117075403Y-16952936D01*
X116840001Y-16932341D01*
X116839999Y-16932341D01*
X116604596Y-16952936D01*
X116604586Y-16952938D01*
X116376344Y-17014094D01*
X116376335Y-17014098D01*
X116162171Y-17113964D01*
X116162169Y-17113965D01*
X115968597Y-17249505D01*
X115801505Y-17416597D01*
X115671575Y-17602158D01*
X115616998Y-17645783D01*
X115547500Y-17652977D01*
X115485145Y-17621454D01*
X115468425Y-17602158D01*
X115338494Y-17416597D01*
X115171402Y-17249506D01*
X115171395Y-17249501D01*
X114977834Y-17113967D01*
X114977830Y-17113965D01*
X114922999Y-17088397D01*
X114763663Y-17014097D01*
X114763659Y-17014096D01*
X114763655Y-17014094D01*
X114535413Y-16952938D01*
X114535403Y-16952936D01*
X114300001Y-16932341D01*
X114299999Y-16932341D01*
X114064596Y-16952936D01*
X114064586Y-16952938D01*
X113836344Y-17014094D01*
X113836335Y-17014098D01*
X113622171Y-17113964D01*
X113622169Y-17113965D01*
X113428597Y-17249505D01*
X113261508Y-17416594D01*
X113131269Y-17602595D01*
X113076692Y-17646219D01*
X113007193Y-17653412D01*
X112944839Y-17621890D01*
X112928119Y-17602594D01*
X112798113Y-17416926D01*
X112798108Y-17416920D01*
X112631082Y-17249894D01*
X112437578Y-17114399D01*
X112223492Y-17014570D01*
X112223486Y-17014567D01*
X112010000Y-16957364D01*
X112010000Y-17852498D01*
X111902315Y-17803320D01*
X111795763Y-17788000D01*
X111724237Y-17788000D01*
X111617685Y-17803320D01*
X111510000Y-17852498D01*
X111510000Y-16957364D01*
X111509999Y-16957364D01*
X111296513Y-17014567D01*
X111296507Y-17014570D01*
X111082422Y-17114399D01*
X111082420Y-17114400D01*
X110888926Y-17249886D01*
X110888920Y-17249891D01*
X110721891Y-17416920D01*
X110721886Y-17416926D01*
X110586400Y-17610420D01*
X110586399Y-17610422D01*
X110486570Y-17824507D01*
X110486567Y-17824513D01*
X110429364Y-18037999D01*
X110429364Y-18038000D01*
X111326314Y-18038000D01*
X111300507Y-18078156D01*
X111260000Y-18216111D01*
X111260000Y-18359889D01*
X111300507Y-18497844D01*
X111326314Y-18538000D01*
X110429364Y-18538000D01*
X107014500Y-18538000D01*
X107014499Y-17390128D01*
X107008091Y-17330517D01*
X107006810Y-17327083D01*
X106957797Y-17195671D01*
X106957793Y-17195664D01*
X106871547Y-17080455D01*
X106871544Y-17080452D01*
X106756335Y-16994206D01*
X106756328Y-16994202D01*
X106621482Y-16943908D01*
X106621483Y-16943908D01*
X106561883Y-16937501D01*
X106561881Y-16937500D01*
X106561873Y-16937500D01*
X106561864Y-16937500D01*
X104766129Y-16937500D01*
X104766123Y-16937501D01*
X104706516Y-16943908D01*
X104571671Y-16994202D01*
X104571664Y-16994206D01*
X104456455Y-17080452D01*
X104456452Y-17080455D01*
X104370206Y-17195664D01*
X104370203Y-17195669D01*
X104321189Y-17327083D01*
X104279317Y-17383016D01*
X104213853Y-17407433D01*
X104145580Y-17392581D01*
X104117326Y-17371430D01*
X103995402Y-17249506D01*
X103995395Y-17249501D01*
X103801834Y-17113967D01*
X103801830Y-17113965D01*
X103746999Y-17088397D01*
X103587663Y-17014097D01*
X103587659Y-17014096D01*
X103587655Y-17014094D01*
X103359413Y-16952938D01*
X103359403Y-16952936D01*
X103124001Y-16932341D01*
X103123999Y-16932341D01*
X102888596Y-16952936D01*
X102888586Y-16952938D01*
X102660344Y-17014094D01*
X102660335Y-17014098D01*
X102446171Y-17113964D01*
X102446169Y-17113965D01*
X102252597Y-17249505D01*
X102085505Y-17416597D01*
X101955575Y-17602158D01*
X101900998Y-17645783D01*
X101831500Y-17652977D01*
X101769145Y-17621454D01*
X101752425Y-17602158D01*
X101622494Y-17416597D01*
X101455402Y-17249506D01*
X101455395Y-17249501D01*
X101261834Y-17113967D01*
X101261830Y-17113965D01*
X101206999Y-17088397D01*
X101047663Y-17014097D01*
X101047659Y-17014096D01*
X101047655Y-17014094D01*
X100819413Y-16952938D01*
X100819403Y-16952936D01*
X100584001Y-16932341D01*
X100583999Y-16932341D01*
X100348596Y-16952936D01*
X100348586Y-16952938D01*
X100120344Y-17014094D01*
X100120335Y-17014098D01*
X99906171Y-17113964D01*
X99906169Y-17113965D01*
X99712597Y-17249505D01*
X99545508Y-17416594D01*
X99415269Y-17602595D01*
X99360692Y-17646219D01*
X99291193Y-17653412D01*
X99228839Y-17621890D01*
X99212119Y-17602594D01*
X99082113Y-17416926D01*
X99082108Y-17416920D01*
X98915082Y-17249894D01*
X98721578Y-17114399D01*
X98507492Y-17014570D01*
X98507486Y-17014567D01*
X98294000Y-16957364D01*
X98294000Y-17852498D01*
X98186315Y-17803320D01*
X98079763Y-17788000D01*
X98008237Y-17788000D01*
X97901685Y-17803320D01*
X97794000Y-17852498D01*
X97794000Y-16957364D01*
X97793999Y-16957364D01*
X97580513Y-17014567D01*
X97580507Y-17014570D01*
X97366422Y-17114399D01*
X97366420Y-17114400D01*
X97172926Y-17249886D01*
X97172920Y-17249891D01*
X97005891Y-17416920D01*
X97005886Y-17416926D01*
X96870400Y-17610420D01*
X96870399Y-17610422D01*
X96770570Y-17824507D01*
X96770567Y-17824513D01*
X96713364Y-18037999D01*
X96713364Y-18038000D01*
X97610314Y-18038000D01*
X97584507Y-18078156D01*
X97544000Y-18216111D01*
X97544000Y-18359889D01*
X97584507Y-18497844D01*
X97610314Y-18538000D01*
X96713364Y-18538000D01*
X92769010Y-18538000D01*
X92728626Y-18387285D01*
X92713905Y-18332344D01*
X92713904Y-18332343D01*
X92713903Y-18332337D01*
X92614035Y-18118171D01*
X92614034Y-18118169D01*
X92478494Y-17924597D01*
X92311402Y-17757505D01*
X92117830Y-17621965D01*
X92117828Y-17621964D01*
X92010746Y-17572031D01*
X91903663Y-17522097D01*
X91903659Y-17522096D01*
X91903655Y-17522094D01*
X91675413Y-17460938D01*
X91675403Y-17460936D01*
X91498966Y-17445500D01*
X91381034Y-17445500D01*
X91204596Y-17460936D01*
X91204586Y-17460938D01*
X90976344Y-17522094D01*
X90976335Y-17522098D01*
X90762171Y-17621964D01*
X90762169Y-17621965D01*
X90568597Y-17757505D01*
X90401506Y-17924597D01*
X90401501Y-17924604D01*
X90265967Y-18118165D01*
X90265965Y-18118169D01*
X90166098Y-18332335D01*
X90166094Y-18332344D01*
X90104938Y-18560586D01*
X90104936Y-18560596D01*
X90084341Y-18795999D01*
X90084341Y-18796000D01*
X88500000Y-18796000D01*
X88500000Y-18026053D01*
X88504225Y-17993959D01*
X88506095Y-17986983D01*
X88507212Y-17983104D01*
X88551643Y-17828879D01*
X88553315Y-17823894D01*
X88611464Y-17672411D01*
X88619514Y-17652977D01*
X88673871Y-17521747D01*
X88675869Y-17517414D01*
X88750052Y-17371824D01*
X88828602Y-17229701D01*
X88830817Y-17226008D01*
X88920187Y-17088391D01*
X89014053Y-16956099D01*
X89016371Y-16953043D01*
X89119024Y-16826276D01*
X89120872Y-16824105D01*
X89228066Y-16704155D01*
X89230366Y-16701723D01*
X89345723Y-16586366D01*
X89348155Y-16584066D01*
X89468105Y-16476872D01*
X89470276Y-16475024D01*
X89597043Y-16372371D01*
X89600099Y-16370053D01*
X89732391Y-16276187D01*
X89870008Y-16186817D01*
X89873701Y-16184602D01*
X90015824Y-16106052D01*
X90161414Y-16031869D01*
X90165747Y-16029871D01*
X90316390Y-15967472D01*
X90467874Y-15909323D01*
X90472914Y-15907634D01*
X90474382Y-15907210D01*
X90630937Y-15862107D01*
X90785840Y-15820600D01*
X90791477Y-15819370D01*
X90852844Y-15808943D01*
X90957478Y-15791166D01*
X91005738Y-15783521D01*
X91111591Y-15766756D01*
X91117767Y-15766096D01*
X91306470Y-15755498D01*
X91438379Y-15748584D01*
X91441623Y-15748500D01*
X125474377Y-15748500D01*
X125477620Y-15748584D01*
G37*
%TD.AperFunction*%
%TD*%
M02*
