%TF.GenerationSoftware,KiCad,Pcbnew,7.0.8*%
%TF.CreationDate,2023-11-01T19:37:33-03:00*%
%TF.ProjectId,KICAD_STM32,4b494341-445f-4535-944d-33322e6b6963,rev?*%
%TF.SameCoordinates,Original*%
%TF.FileFunction,Copper,L1,Top*%
%TF.FilePolarity,Positive*%
%FSLAX46Y46*%
G04 Gerber Fmt 4.6, Leading zero omitted, Abs format (unit mm)*
G04 Created by KiCad (PCBNEW 7.0.8) date 2023-11-01 19:37:33*
%MOMM*%
%LPD*%
G01*
G04 APERTURE LIST*
G04 Aperture macros list*
%AMRoundRect*
0 Rectangle with rounded corners*
0 $1 Rounding radius*
0 $2 $3 $4 $5 $6 $7 $8 $9 X,Y pos of 4 corners*
0 Add a 4 corners polygon primitive as box body*
4,1,4,$2,$3,$4,$5,$6,$7,$8,$9,$2,$3,0*
0 Add four circle primitives for the rounded corners*
1,1,$1+$1,$2,$3*
1,1,$1+$1,$4,$5*
1,1,$1+$1,$6,$7*
1,1,$1+$1,$8,$9*
0 Add four rect primitives between the rounded corners*
20,1,$1+$1,$2,$3,$4,$5,0*
20,1,$1+$1,$4,$5,$6,$7,0*
20,1,$1+$1,$6,$7,$8,$9,0*
20,1,$1+$1,$8,$9,$2,$3,0*%
G04 Aperture macros list end*
%TA.AperFunction,SMDPad,CuDef*%
%ADD10RoundRect,0.140000X0.170000X-0.140000X0.170000X0.140000X-0.170000X0.140000X-0.170000X-0.140000X0*%
%TD*%
%TA.AperFunction,SMDPad,CuDef*%
%ADD11R,1.200000X1.400000*%
%TD*%
%TA.AperFunction,ComponentPad*%
%ADD12O,1.800000X1.150000*%
%TD*%
%TA.AperFunction,ComponentPad*%
%ADD13O,2.000000X1.450000*%
%TD*%
%TA.AperFunction,SMDPad,CuDef*%
%ADD14R,1.300000X0.450000*%
%TD*%
%TA.AperFunction,ComponentPad*%
%ADD15R,1.700000X1.700000*%
%TD*%
%TA.AperFunction,ComponentPad*%
%ADD16O,1.700000X1.700000*%
%TD*%
%TA.AperFunction,SMDPad,CuDef*%
%ADD17R,0.800000X1.000000*%
%TD*%
%TA.AperFunction,SMDPad,CuDef*%
%ADD18R,1.500000X0.700000*%
%TD*%
%TA.AperFunction,SMDPad,CuDef*%
%ADD19RoundRect,0.135000X0.185000X-0.135000X0.185000X0.135000X-0.185000X0.135000X-0.185000X-0.135000X0*%
%TD*%
%TA.AperFunction,SMDPad,CuDef*%
%ADD20R,1.500000X2.000000*%
%TD*%
%TA.AperFunction,SMDPad,CuDef*%
%ADD21R,3.800000X2.000000*%
%TD*%
%TA.AperFunction,SMDPad,CuDef*%
%ADD22RoundRect,0.140000X0.140000X0.170000X-0.140000X0.170000X-0.140000X-0.170000X0.140000X-0.170000X0*%
%TD*%
%TA.AperFunction,SMDPad,CuDef*%
%ADD23RoundRect,0.135000X0.135000X0.185000X-0.135000X0.185000X-0.135000X-0.185000X0.135000X-0.185000X0*%
%TD*%
%TA.AperFunction,SMDPad,CuDef*%
%ADD24RoundRect,0.140000X-0.170000X0.140000X-0.170000X-0.140000X0.170000X-0.140000X0.170000X0.140000X0*%
%TD*%
%TA.AperFunction,SMDPad,CuDef*%
%ADD25RoundRect,0.250000X-0.250000X-0.475000X0.250000X-0.475000X0.250000X0.475000X-0.250000X0.475000X0*%
%TD*%
%TA.AperFunction,SMDPad,CuDef*%
%ADD26RoundRect,0.075000X-0.662500X-0.075000X0.662500X-0.075000X0.662500X0.075000X-0.662500X0.075000X0*%
%TD*%
%TA.AperFunction,SMDPad,CuDef*%
%ADD27RoundRect,0.075000X-0.075000X-0.662500X0.075000X-0.662500X0.075000X0.662500X-0.075000X0.662500X0*%
%TD*%
%TA.AperFunction,SMDPad,CuDef*%
%ADD28RoundRect,0.140000X-0.140000X-0.170000X0.140000X-0.170000X0.140000X0.170000X-0.140000X0.170000X0*%
%TD*%
%TA.AperFunction,SMDPad,CuDef*%
%ADD29RoundRect,0.225000X-0.225000X-0.250000X0.225000X-0.250000X0.225000X0.250000X-0.225000X0.250000X0*%
%TD*%
%TA.AperFunction,SMDPad,CuDef*%
%ADD30RoundRect,0.250000X0.475000X-0.250000X0.475000X0.250000X-0.475000X0.250000X-0.475000X-0.250000X0*%
%TD*%
%TA.AperFunction,SMDPad,CuDef*%
%ADD31RoundRect,0.135000X-0.185000X0.135000X-0.185000X-0.135000X0.185000X-0.135000X0.185000X0.135000X0*%
%TD*%
%TA.AperFunction,SMDPad,CuDef*%
%ADD32RoundRect,0.218750X-0.381250X0.218750X-0.381250X-0.218750X0.381250X-0.218750X0.381250X0.218750X0*%
%TD*%
%TA.AperFunction,SMDPad,CuDef*%
%ADD33RoundRect,0.218750X-0.256250X0.218750X-0.256250X-0.218750X0.256250X-0.218750X0.256250X0.218750X0*%
%TD*%
%TA.AperFunction,SMDPad,CuDef*%
%ADD34RoundRect,0.135000X-0.135000X-0.185000X0.135000X-0.185000X0.135000X0.185000X-0.135000X0.185000X0*%
%TD*%
%TA.AperFunction,ViaPad*%
%ADD35C,0.800000*%
%TD*%
%TA.AperFunction,Conductor*%
%ADD36C,0.250000*%
%TD*%
%TA.AperFunction,Conductor*%
%ADD37C,0.200000*%
%TD*%
%TA.AperFunction,Conductor*%
%ADD38C,0.300000*%
%TD*%
%TA.AperFunction,Conductor*%
%ADD39C,0.500000*%
%TD*%
G04 APERTURE END LIST*
D10*
%TO.P,C4,1*%
%TO.N,+3.3V*%
X102000000Y-28730000D03*
%TO.P,C4,2*%
%TO.N,GND*%
X102000000Y-27770000D03*
%TD*%
D11*
%TO.P,Y1,1,1*%
%TO.N,/HSE_IN*%
X96300000Y-30074000D03*
%TO.P,Y1,2,2*%
%TO.N,GND*%
X96300000Y-32274000D03*
%TO.P,Y1,3,3*%
%TO.N,/HSE_OUT*%
X98000000Y-32274000D03*
%TO.P,Y1,4,4*%
%TO.N,GND*%
X98000000Y-30074000D03*
%TD*%
D12*
%TO.P,J1,6,Shield*%
%TO.N,N/C*%
X126163000Y-25086000D03*
D13*
X122363000Y-25236000D03*
X122363000Y-32686000D03*
D12*
X126163000Y-32836000D03*
D14*
%TO.P,J1,5,GND*%
%TO.N,GND*%
X122313000Y-27661000D03*
%TO.P,J1,4,ID*%
%TO.N,unconnected-(J1-ID-Pad4)*%
X122313000Y-28311000D03*
%TO.P,J1,3,D+*%
%TO.N,/USB_D+*%
X122313000Y-28961000D03*
%TO.P,J1,2,D-*%
%TO.N,/USB_D-*%
X122313000Y-29611000D03*
%TO.P,J1,1,VBUS*%
%TO.N,VBUS*%
X122313000Y-30261000D03*
%TD*%
D10*
%TO.P,C13,1*%
%TO.N,/HSE_OUT*%
X99900000Y-32680000D03*
%TO.P,C13,2*%
%TO.N,GND*%
X99900000Y-31720000D03*
%TD*%
D15*
%TO.P,J4,1,Pin_1*%
%TO.N,+3.3V*%
X103124000Y-43688000D03*
D16*
%TO.P,J4,2,Pin_2*%
%TO.N,/I2C2_SCL*%
X105664000Y-43688000D03*
%TO.P,J4,3,Pin_3*%
%TO.N,/I2C2_SDA*%
X108204000Y-43688000D03*
%TO.P,J4,4,Pin_4*%
%TO.N,GND*%
X110744000Y-43688000D03*
%TD*%
D17*
%TO.P,SW1,*%
%TO.N,*%
X91712000Y-22450000D03*
X89502000Y-22450000D03*
X91712000Y-29750000D03*
X89502000Y-29750000D03*
D18*
%TO.P,SW1,1,A*%
%TO.N,GND*%
X92362000Y-23850000D03*
%TO.P,SW1,2,B*%
%TO.N,/SW_BOOT0*%
X92362000Y-26850000D03*
%TO.P,SW1,3,C*%
%TO.N,+3.3V*%
X92362000Y-28350000D03*
%TD*%
D15*
%TO.P,J3,1,Pin_1*%
%TO.N,+3.3V*%
X105664000Y-18288000D03*
D16*
%TO.P,J3,2,Pin_2*%
%TO.N,/UART1_TX*%
X103124000Y-18288000D03*
%TO.P,J3,3,Pin_3*%
%TO.N,/UART1_RX*%
X100584000Y-18288000D03*
%TO.P,J3,4,Pin_4*%
%TO.N,GND*%
X98044000Y-18288000D03*
%TD*%
D10*
%TO.P,C12,1*%
%TO.N,/HSE_IN*%
X99900000Y-30666000D03*
%TO.P,C12,2*%
%TO.N,GND*%
X99900000Y-29706000D03*
%TD*%
D19*
%TO.P,R2,1*%
%TO.N,/SW_BOOT0*%
X95504000Y-26924000D03*
%TO.P,R2,2*%
%TO.N,/BOOT0*%
X95504000Y-25904000D03*
%TD*%
D20*
%TO.P,U1,1,GND*%
%TO.N,GND*%
X119648000Y-36982000D03*
%TO.P,U1,2,VO*%
%TO.N,+3.3V*%
X117348000Y-36982000D03*
D21*
X117348000Y-43282000D03*
D20*
%TO.P,U1,3,VI*%
%TO.N,VBUS*%
X115048000Y-36982000D03*
%TD*%
D22*
%TO.P,C10,1*%
%TO.N,+3.3V*%
X100556000Y-37900000D03*
%TO.P,C10,2*%
%TO.N,GND*%
X99596000Y-37900000D03*
%TD*%
D10*
%TO.P,C8,1*%
%TO.N,+3.3VA*%
X102108000Y-33066000D03*
%TO.P,C8,2*%
%TO.N,GND*%
X102108000Y-32106000D03*
%TD*%
D23*
%TO.P,R4,1*%
%TO.N,+3.3V*%
X106680000Y-40250000D03*
%TO.P,R4,2*%
%TO.N,/I2C2_SCL*%
X105660000Y-40250000D03*
%TD*%
D22*
%TO.P,C9,1*%
%TO.N,+3.3VA*%
X100584000Y-35755000D03*
%TO.P,C9,2*%
%TO.N,GND*%
X99624000Y-35755000D03*
%TD*%
D24*
%TO.P,C6,1*%
%TO.N,+3.3V*%
X114300000Y-28578000D03*
%TO.P,C6,2*%
%TO.N,GND*%
X114300000Y-29538000D03*
%TD*%
D25*
%TO.P,C1,1*%
%TO.N,VBUS*%
X116500000Y-34138000D03*
%TO.P,C1,2*%
%TO.N,GND*%
X118400000Y-34138000D03*
%TD*%
D26*
%TO.P,U2,1,VBAT*%
%TO.N,+3.3V*%
X104041500Y-28848000D03*
%TO.P,U2,2,PC13*%
%TO.N,unconnected-(U2-PC13-Pad2)*%
X104041500Y-29348000D03*
%TO.P,U2,3,PC14*%
%TO.N,unconnected-(U2-PC14-Pad3)*%
X104041500Y-29848000D03*
%TO.P,U2,4,PC15*%
%TO.N,unconnected-(U2-PC15-Pad4)*%
X104041500Y-30348000D03*
%TO.P,U2,5,PD0*%
%TO.N,/HSE_IN*%
X104041500Y-30848000D03*
%TO.P,U2,6,PD1*%
%TO.N,/HSE_OUT*%
X104041500Y-31348000D03*
%TO.P,U2,7,NRST*%
%TO.N,/NRST*%
X104041500Y-31848000D03*
%TO.P,U2,8,VSSA*%
%TO.N,GND*%
X104041500Y-32348000D03*
%TO.P,U2,9,VDDA*%
%TO.N,+3.3VA*%
X104041500Y-32848000D03*
%TO.P,U2,10,PA0*%
%TO.N,unconnected-(U2-PA0-Pad10)*%
X104041500Y-33348000D03*
%TO.P,U2,11,PA1*%
%TO.N,unconnected-(U2-PA1-Pad11)*%
X104041500Y-33848000D03*
%TO.P,U2,12,PA2*%
%TO.N,unconnected-(U2-PA2-Pad12)*%
X104041500Y-34348000D03*
D27*
%TO.P,U2,13,PA3*%
%TO.N,unconnected-(U2-PA3-Pad13)*%
X105454000Y-35760500D03*
%TO.P,U2,14,PA4*%
%TO.N,unconnected-(U2-PA4-Pad14)*%
X105954000Y-35760500D03*
%TO.P,U2,15,PA5*%
%TO.N,unconnected-(U2-PA5-Pad15)*%
X106454000Y-35760500D03*
%TO.P,U2,16,PA6*%
%TO.N,unconnected-(U2-PA6-Pad16)*%
X106954000Y-35760500D03*
%TO.P,U2,17,PA7*%
%TO.N,unconnected-(U2-PA7-Pad17)*%
X107454000Y-35760500D03*
%TO.P,U2,18,PB0*%
%TO.N,unconnected-(U2-PB0-Pad18)*%
X107954000Y-35760500D03*
%TO.P,U2,19,PB1*%
%TO.N,unconnected-(U2-PB1-Pad19)*%
X108454000Y-35760500D03*
%TO.P,U2,20,PB2*%
%TO.N,unconnected-(U2-PB2-Pad20)*%
X108954000Y-35760500D03*
%TO.P,U2,21,PB10*%
%TO.N,/I2C2_SCL*%
X109454000Y-35760500D03*
%TO.P,U2,22,PB11*%
%TO.N,/I2C2_SDA*%
X109954000Y-35760500D03*
%TO.P,U2,23,VSS*%
%TO.N,GND*%
X110454000Y-35760500D03*
%TO.P,U2,24,VDD*%
%TO.N,+3.3V*%
X110954000Y-35760500D03*
D26*
%TO.P,U2,25,PB12*%
%TO.N,unconnected-(U2-PB12-Pad25)*%
X112366500Y-34348000D03*
%TO.P,U2,26,PB13*%
%TO.N,unconnected-(U2-PB13-Pad26)*%
X112366500Y-33848000D03*
%TO.P,U2,27,PB14*%
%TO.N,unconnected-(U2-PB14-Pad27)*%
X112366500Y-33348000D03*
%TO.P,U2,28,PB15*%
%TO.N,unconnected-(U2-PB15-Pad28)*%
X112366500Y-32848000D03*
%TO.P,U2,29,PA8*%
%TO.N,unconnected-(U2-PA8-Pad29)*%
X112366500Y-32348000D03*
%TO.P,U2,30,PA9*%
%TO.N,unconnected-(U2-PA9-Pad30)*%
X112366500Y-31848000D03*
%TO.P,U2,31,PA10*%
%TO.N,unconnected-(U2-PA10-Pad31)*%
X112366500Y-31348000D03*
%TO.P,U2,32,PA11*%
%TO.N,/USB_D-*%
X112366500Y-30848000D03*
%TO.P,U2,33,PA12*%
%TO.N,/USB_D+*%
X112366500Y-30348000D03*
%TO.P,U2,34,PA13*%
%TO.N,/SWDIO*%
X112366500Y-29848000D03*
%TO.P,U2,35,VSS*%
%TO.N,GND*%
X112366500Y-29348000D03*
%TO.P,U2,36,VDD*%
%TO.N,+3.3V*%
X112366500Y-28848000D03*
D27*
%TO.P,U2,37,PA14*%
%TO.N,/SWCLK*%
X110954000Y-27435500D03*
%TO.P,U2,38,PA15*%
%TO.N,unconnected-(U2-PA15-Pad38)*%
X110454000Y-27435500D03*
%TO.P,U2,39,PB3*%
%TO.N,unconnected-(U2-PB3-Pad39)*%
X109954000Y-27435500D03*
%TO.P,U2,40,PB4*%
%TO.N,unconnected-(U2-PB4-Pad40)*%
X109454000Y-27435500D03*
%TO.P,U2,41,PB5*%
%TO.N,unconnected-(U2-PB5-Pad41)*%
X108954000Y-27435500D03*
%TO.P,U2,42,PB6*%
%TO.N,/UART1_TX*%
X108454000Y-27435500D03*
%TO.P,U2,43,PB7*%
%TO.N,/UART1_RX*%
X107954000Y-27435500D03*
%TO.P,U2,44,BOOT0*%
%TO.N,/BOOT0*%
X107454000Y-27435500D03*
%TO.P,U2,45,PB8*%
%TO.N,unconnected-(U2-PB8-Pad45)*%
X106954000Y-27435500D03*
%TO.P,U2,46,PB9*%
%TO.N,unconnected-(U2-PB9-Pad46)*%
X106454000Y-27435500D03*
%TO.P,U2,47,VSS*%
%TO.N,GND*%
X105954000Y-27435500D03*
%TO.P,U2,48,VDD*%
%TO.N,+3.3V*%
X105454000Y-27435500D03*
%TD*%
D28*
%TO.P,C11,1*%
%TO.N,/NRST*%
X105420000Y-37500000D03*
%TO.P,C11,2*%
%TO.N,GND*%
X106380000Y-37500000D03*
%TD*%
D19*
%TO.P,R1,1*%
%TO.N,/PWR_LED_K*%
X126100000Y-36000000D03*
%TO.P,R1,2*%
%TO.N,GND*%
X126100000Y-34980000D03*
%TD*%
D22*
%TO.P,C7,1*%
%TO.N,+3.3V*%
X112230000Y-37694000D03*
%TO.P,C7,2*%
%TO.N,GND*%
X111270000Y-37694000D03*
%TD*%
D29*
%TO.P,C3,1*%
%TO.N,+3.3V*%
X104975000Y-23470000D03*
%TO.P,C3,2*%
%TO.N,GND*%
X106525000Y-23470000D03*
%TD*%
D15*
%TO.P,J2,1,Pin_1*%
%TO.N,+3.3V*%
X119380000Y-18288000D03*
D16*
%TO.P,J2,2,Pin_2*%
%TO.N,/SWDIO*%
X116840000Y-18288000D03*
%TO.P,J2,3,Pin_3*%
%TO.N,/SWCLK*%
X114300000Y-18288000D03*
%TO.P,J2,4,Pin_4*%
%TO.N,GND*%
X111760000Y-18288000D03*
%TD*%
D28*
%TO.P,C5,1*%
%TO.N,+3.3V*%
X105212000Y-25250000D03*
%TO.P,C5,2*%
%TO.N,GND*%
X106172000Y-25250000D03*
%TD*%
D30*
%TO.P,C2,1*%
%TO.N,+3.3V*%
X122500000Y-39900000D03*
%TO.P,C2,2*%
%TO.N,GND*%
X122500000Y-38000000D03*
%TD*%
D31*
%TO.P,R3,1*%
%TO.N,+3.3V*%
X117348000Y-28546000D03*
%TO.P,R3,2*%
%TO.N,/USB_D+*%
X117348000Y-29566000D03*
%TD*%
D32*
%TO.P,FB1,1*%
%TO.N,+3.3VA*%
X102108000Y-35662000D03*
%TO.P,FB1,2*%
%TO.N,+3.3V*%
X102108000Y-37787000D03*
%TD*%
D33*
%TO.P,D1,1,K*%
%TO.N,/PWR_LED_K*%
X126100000Y-37806500D03*
%TO.P,D1,2,A*%
%TO.N,+3.3V*%
X126100000Y-39381500D03*
%TD*%
D34*
%TO.P,R5,1*%
%TO.N,+3.3V*%
X109728000Y-40250000D03*
%TO.P,R5,2*%
%TO.N,/I2C2_SDA*%
X110748000Y-40250000D03*
%TD*%
D35*
%TO.N,GND*%
X99596000Y-38900000D03*
X102000000Y-26750000D03*
X120300000Y-38900000D03*
X96300000Y-34000000D03*
X115500000Y-29500000D03*
X123996000Y-37900000D03*
X105700000Y-32700000D03*
X94500000Y-23000000D03*
X106300000Y-29000000D03*
X119200000Y-38900000D03*
X119660000Y-33500000D03*
X119660000Y-34800000D03*
X99600000Y-36700000D03*
X120000000Y-27500000D03*
X101100000Y-29700000D03*
X110400000Y-34200000D03*
X124500000Y-35000000D03*
X107364000Y-37500000D03*
X100701851Y-31481198D03*
%TO.N,+3.3V*%
X104900000Y-41200000D03*
X106500000Y-41200000D03*
X109890500Y-39100000D03*
X111389500Y-39100000D03*
%TD*%
D36*
%TO.N,+3.3VA*%
X102108000Y-35662000D02*
X102108000Y-33066000D01*
X100677000Y-35662000D02*
X100584000Y-35755000D01*
X102108000Y-35662000D02*
X100677000Y-35662000D01*
%TO.N,GND*%
X100701851Y-31481198D02*
X100463049Y-31720000D01*
X100463049Y-31720000D02*
X99900000Y-31720000D01*
D37*
%TO.N,/USB_D+*%
X113472751Y-30348000D02*
X113497751Y-30373000D01*
X121337999Y-28961000D02*
X122313000Y-28961000D01*
D38*
X118251800Y-29566000D02*
X119058800Y-30373000D01*
D37*
X121237999Y-29061000D02*
X121337999Y-28961000D01*
D38*
X117348000Y-29566000D02*
X118251800Y-29566000D01*
D37*
X119058800Y-30373000D02*
X120370800Y-29061000D01*
X120370800Y-29061000D02*
X121237999Y-29061000D01*
X113497751Y-30373000D02*
X119058800Y-30373000D01*
X112366500Y-30348000D02*
X113472751Y-30348000D01*
D39*
%TO.N,GND*%
X106525000Y-23470000D02*
X106525000Y-24897000D01*
X93650000Y-23850000D02*
X94500000Y-23000000D01*
D38*
X105954000Y-28654000D02*
X106300000Y-29000000D01*
D36*
X96300000Y-32274000D02*
X96300000Y-34000000D01*
D39*
X99596000Y-38900000D02*
X99596000Y-37900000D01*
D38*
X102848000Y-32348000D02*
X102606000Y-32106000D01*
D36*
X101094000Y-29706000D02*
X101100000Y-29700000D01*
D39*
X99624000Y-36676000D02*
X99600000Y-36700000D01*
D38*
X105348000Y-32348000D02*
X105700000Y-32700000D01*
X120161000Y-27661000D02*
X120000000Y-27500000D01*
X102606000Y-32106000D02*
X102108000Y-32106000D01*
X113538000Y-29538000D02*
X114300000Y-29538000D01*
X106172000Y-26203000D02*
X106172000Y-25250000D01*
X114300000Y-29538000D02*
X115462000Y-29538000D01*
X122313000Y-27661000D02*
X120161000Y-27661000D01*
X124520000Y-34980000D02*
X124500000Y-35000000D01*
D39*
X106525000Y-24897000D02*
X106172000Y-25250000D01*
D38*
X105954000Y-26421000D02*
X106172000Y-26203000D01*
X126100000Y-34980000D02*
X124520000Y-34980000D01*
D39*
X92362000Y-23850000D02*
X93650000Y-23850000D01*
D38*
X104041500Y-32348000D02*
X102848000Y-32348000D01*
X115462000Y-29538000D02*
X115500000Y-29500000D01*
X111270000Y-37020000D02*
X111270000Y-37694000D01*
X113348000Y-29348000D02*
X113538000Y-29538000D01*
X110454000Y-34254000D02*
X110454000Y-35760500D01*
X110750000Y-37000000D02*
X111250000Y-37000000D01*
X110454000Y-35760500D02*
X110454000Y-36704000D01*
D36*
X100032000Y-29706000D02*
X101094000Y-29706000D01*
D38*
X105954000Y-27435500D02*
X105954000Y-26421000D01*
D39*
X102000000Y-27770000D02*
X102000000Y-26750000D01*
D36*
X98726000Y-30074000D02*
X99094000Y-29706000D01*
D39*
X107364000Y-37500000D02*
X106380000Y-37500000D01*
D38*
X105954000Y-27435500D02*
X105954000Y-28654000D01*
D36*
X99094000Y-29706000D02*
X100032000Y-29706000D01*
D38*
X104041500Y-32348000D02*
X105348000Y-32348000D01*
D39*
X99624000Y-35755000D02*
X99624000Y-36676000D01*
D38*
X112366500Y-29348000D02*
X113348000Y-29348000D01*
X110454000Y-36704000D02*
X110750000Y-37000000D01*
D36*
X98000000Y-30074000D02*
X98726000Y-30074000D01*
D38*
X111250000Y-37000000D02*
X111270000Y-37020000D01*
X110400000Y-34200000D02*
X110454000Y-34254000D01*
%TO.N,+3.3V*%
X111750000Y-36500000D02*
X112230000Y-36980000D01*
D39*
X99600000Y-25900000D02*
X102030000Y-23470000D01*
X126100000Y-39381500D02*
X127018500Y-39381500D01*
X92600000Y-28588000D02*
X92362000Y-28350000D01*
X109728000Y-40250000D02*
X109678000Y-40300000D01*
X103700000Y-42100000D02*
X103124000Y-42676000D01*
X103700000Y-41200000D02*
X103700000Y-42100000D01*
X92600000Y-29500000D02*
X92600000Y-28588000D01*
X104975000Y-25013000D02*
X105212000Y-25250000D01*
X100130000Y-28730000D02*
X102000000Y-28730000D01*
X113100000Y-41100000D02*
X112230000Y-40230000D01*
X117348000Y-25752000D02*
X117348000Y-28546000D01*
X93900000Y-29888000D02*
X95588000Y-28200000D01*
X104900000Y-41200000D02*
X103700000Y-41200000D01*
D38*
X111000000Y-36500000D02*
X111750000Y-36500000D01*
D39*
X103700000Y-41200000D02*
X102800000Y-41200000D01*
X126800000Y-22300000D02*
X124300000Y-22300000D01*
D38*
X112230000Y-36980000D02*
X112230000Y-37694000D01*
X113672000Y-28578000D02*
X114300000Y-28578000D01*
D39*
X121188000Y-18288000D02*
X119380000Y-18288000D01*
X120800000Y-22300000D02*
X117348000Y-25752000D01*
X121900000Y-44800000D02*
X121300000Y-45400000D01*
X95588000Y-28200000D02*
X99600000Y-28200000D01*
X122600000Y-19700000D02*
X121188000Y-18288000D01*
X102100000Y-40500000D02*
X102108000Y-40492000D01*
X96592000Y-40492000D02*
X93900000Y-37800000D01*
D38*
X113402000Y-28848000D02*
X113672000Y-28578000D01*
D39*
X106680000Y-41020000D02*
X106500000Y-41200000D01*
X118400000Y-16400000D02*
X106700000Y-16400000D01*
D38*
X105454000Y-26454000D02*
X105212000Y-26212000D01*
D39*
X92600000Y-29500000D02*
X92988000Y-29888000D01*
X112230000Y-39100000D02*
X112230000Y-37694000D01*
D38*
X110954000Y-36454000D02*
X111000000Y-36500000D01*
D39*
X125118500Y-39381500D02*
X126100000Y-39381500D01*
X127800000Y-38600000D02*
X127800000Y-23300000D01*
X93900000Y-37800000D02*
X93900000Y-29888000D01*
X99600000Y-28200000D02*
X100130000Y-28730000D01*
X109728000Y-39372000D02*
X109728000Y-40250000D01*
X119380000Y-18288000D02*
X119380000Y-17380000D01*
X103124000Y-42676000D02*
X103124000Y-43688000D01*
D38*
X103098000Y-28848000D02*
X102980000Y-28730000D01*
D39*
X99600000Y-28200000D02*
X99600000Y-25900000D01*
X109890500Y-39209500D02*
X109728000Y-39372000D01*
X122500000Y-39900000D02*
X124600000Y-39900000D01*
X121900000Y-40500000D02*
X121900000Y-44800000D01*
X106700000Y-16400000D02*
X105664000Y-17436000D01*
X102108000Y-40492000D02*
X96592000Y-40492000D01*
X124300000Y-22300000D02*
X120800000Y-22300000D01*
D38*
X105454000Y-27435500D02*
X105454000Y-26454000D01*
D39*
X124600000Y-39900000D02*
X125118500Y-39381500D01*
X92988000Y-29888000D02*
X93900000Y-29888000D01*
D38*
X104041500Y-28848000D02*
X103098000Y-28848000D01*
D39*
X112230000Y-40230000D02*
X112230000Y-39100000D01*
X112230000Y-39100000D02*
X111389500Y-39100000D01*
X122500000Y-39900000D02*
X121900000Y-40500000D01*
D38*
X112366500Y-28848000D02*
X113402000Y-28848000D01*
D39*
X122600000Y-22300000D02*
X122600000Y-19700000D01*
X113100000Y-44700000D02*
X113100000Y-41100000D01*
X100669000Y-37787000D02*
X100556000Y-37900000D01*
X121300000Y-45400000D02*
X113800000Y-45400000D01*
X127018500Y-39381500D02*
X127800000Y-38600000D01*
D38*
X102980000Y-28730000D02*
X102000000Y-28730000D01*
X117316000Y-28578000D02*
X117348000Y-28546000D01*
D39*
X109890500Y-39100000D02*
X109890500Y-39209500D01*
X124300000Y-22300000D02*
X122600000Y-22300000D01*
X102108000Y-37787000D02*
X100669000Y-37787000D01*
D38*
X110954000Y-35760500D02*
X110954000Y-36454000D01*
D39*
X102800000Y-41200000D02*
X102100000Y-40500000D01*
D38*
X114300000Y-28578000D02*
X117316000Y-28578000D01*
X105212000Y-26212000D02*
X105212000Y-25250000D01*
D39*
X127800000Y-23300000D02*
X126800000Y-22300000D01*
X104975000Y-23470000D02*
X104975000Y-25013000D01*
X113800000Y-45400000D02*
X113100000Y-44700000D01*
X102030000Y-23470000D02*
X104975000Y-23470000D01*
X105664000Y-17436000D02*
X105664000Y-18288000D01*
X106680000Y-40250000D02*
X106680000Y-41020000D01*
X109678000Y-40300000D02*
X106730000Y-40300000D01*
X102108000Y-40492000D02*
X102108000Y-37787000D01*
X106730000Y-40300000D02*
X106680000Y-40250000D01*
X119380000Y-17380000D02*
X118400000Y-16400000D01*
D38*
%TO.N,+3.3VA*%
X102684000Y-33066000D02*
X102108000Y-33066000D01*
X102902000Y-32848000D02*
X102684000Y-33066000D01*
X104041500Y-32848000D02*
X102902000Y-32848000D01*
%TO.N,/NRST*%
X104750000Y-36830000D02*
X104750000Y-35125958D01*
X106700000Y-33700000D02*
X106700000Y-32400000D01*
X106700000Y-32400000D02*
X106148000Y-31848000D01*
X105420000Y-37500000D02*
X104750000Y-36830000D01*
X105675958Y-34200000D02*
X106200000Y-34200000D01*
X106200000Y-34200000D02*
X106700000Y-33700000D01*
X106148000Y-31848000D02*
X104041500Y-31848000D01*
X104750000Y-35125958D02*
X105675958Y-34200000D01*
%TO.N,/HSE_IN*%
X102098000Y-30848000D02*
X101916000Y-30666000D01*
X101916000Y-30666000D02*
X100032000Y-30666000D01*
X99334000Y-30666000D02*
X98776000Y-31224000D01*
X104041500Y-30848000D02*
X102098000Y-30848000D01*
X100032000Y-30666000D02*
X99334000Y-30666000D01*
X98776000Y-31224000D02*
X96750000Y-31224000D01*
X96300000Y-30774000D02*
X96300000Y-30074000D01*
X96750000Y-31224000D02*
X96300000Y-30774000D01*
%TO.N,/HSE_OUT*%
X99170000Y-32670000D02*
X98774000Y-32274000D01*
X100032000Y-32670000D02*
X99170000Y-32670000D01*
X98774000Y-32274000D02*
X98000000Y-32274000D01*
X101226966Y-32670000D02*
X100032000Y-32670000D01*
X101448000Y-31552000D02*
X101448000Y-32448966D01*
X104041500Y-31348000D02*
X101652000Y-31348000D01*
X101652000Y-31348000D02*
X101448000Y-31552000D01*
X101448000Y-32448966D02*
X101226966Y-32670000D01*
D36*
%TO.N,/PWR_LED_K*%
X126100000Y-37806500D02*
X126100000Y-36000000D01*
D37*
%TO.N,/USB_D-*%
X113497751Y-30823000D02*
X119245200Y-30823000D01*
X121237999Y-29511000D02*
X121337999Y-29611000D01*
X120557200Y-29511000D02*
X121237999Y-29511000D01*
X119245200Y-30823000D02*
X120557200Y-29511000D01*
X112366500Y-30848000D02*
X113472751Y-30848000D01*
X121337999Y-29611000D02*
X122313000Y-29611000D01*
X113472751Y-30848000D02*
X113497751Y-30823000D01*
D38*
%TO.N,/SWDIO*%
X111250000Y-29570042D02*
X111250000Y-28625000D01*
X111527958Y-29848000D02*
X111250000Y-29570042D01*
X112366500Y-29848000D02*
X111527958Y-29848000D01*
X116840000Y-23035000D02*
X116840000Y-18288000D01*
X111250000Y-28625000D02*
X116840000Y-23035000D01*
%TO.N,/SWCLK*%
X110954000Y-26296000D02*
X114300000Y-22950000D01*
X110954000Y-27435500D02*
X110954000Y-26296000D01*
X114300000Y-22950000D02*
X114300000Y-18288000D01*
%TO.N,/UART1_TX*%
X103750000Y-20250000D02*
X103124000Y-19624000D01*
X103124000Y-19624000D02*
X103124000Y-18288000D01*
X107250000Y-20250000D02*
X103750000Y-20250000D01*
X108454000Y-27435500D02*
X108454000Y-21454000D01*
X108454000Y-21454000D02*
X107250000Y-20250000D01*
%TO.N,/UART1_RX*%
X107000000Y-21000000D02*
X101500000Y-21000000D01*
X100584000Y-20084000D02*
X100584000Y-18288000D01*
X107954000Y-21954000D02*
X107000000Y-21000000D01*
X101500000Y-21000000D02*
X100584000Y-20084000D01*
X107954000Y-27435500D02*
X107954000Y-21954000D01*
%TO.N,/I2C2_SCL*%
X105660000Y-40250000D02*
X105660000Y-43684000D01*
X107000000Y-38500000D02*
X105660000Y-39840000D01*
X108800000Y-38500000D02*
X107000000Y-38500000D01*
X109454000Y-37846000D02*
X108800000Y-38500000D01*
X109454000Y-35760500D02*
X109454000Y-37846000D01*
X105660000Y-43684000D02*
X105664000Y-43688000D01*
X105660000Y-39840000D02*
X105660000Y-40250000D01*
%TO.N,/I2C2_SDA*%
X110748000Y-40250000D02*
X110748000Y-41252000D01*
X110640000Y-37840000D02*
X110640000Y-40142000D01*
X110640000Y-40142000D02*
X110748000Y-40250000D01*
X109954000Y-37154000D02*
X110640000Y-37840000D01*
X108350000Y-41900000D02*
X108204000Y-42046000D01*
X109954000Y-35760500D02*
X109954000Y-37154000D01*
X110748000Y-41252000D02*
X110100000Y-41900000D01*
X110100000Y-41900000D02*
X108350000Y-41900000D01*
X108204000Y-42046000D02*
X108204000Y-43688000D01*
%TO.N,/SW_BOOT0*%
X92436000Y-26924000D02*
X92362000Y-26850000D01*
X95504000Y-26924000D02*
X92436000Y-26924000D01*
%TO.N,/BOOT0*%
X106750000Y-21750000D02*
X100750000Y-21750000D01*
X107454000Y-27435500D02*
X107454000Y-22454000D01*
X100750000Y-21750000D02*
X96596000Y-25904000D01*
X107454000Y-22454000D02*
X106750000Y-21750000D01*
X96596000Y-25904000D02*
X95504000Y-25904000D01*
%TD*%
%TA.AperFunction,Conductor*%
%TO.N,GND*%
G36*
X120007441Y-33019685D02*
G01*
X120037230Y-33046538D01*
X120372828Y-33466035D01*
X120399336Y-33530681D01*
X120400000Y-33543497D01*
X120400000Y-36500000D01*
X121500000Y-37000000D01*
X123948638Y-37000000D01*
X124015677Y-37019685D01*
X124036319Y-37036319D01*
X124463681Y-37463681D01*
X124497166Y-37525004D01*
X124500000Y-37551362D01*
X124500000Y-38248638D01*
X124480315Y-38315677D01*
X124463681Y-38336319D01*
X124136319Y-38663681D01*
X124074996Y-38697166D01*
X124048638Y-38700000D01*
X123021565Y-38700000D01*
X123014394Y-38699584D01*
X122980538Y-38695642D01*
X122970729Y-38694500D01*
X122970728Y-38694500D01*
X121662000Y-38694500D01*
X121632132Y-38697166D01*
X121603134Y-38699754D01*
X121597619Y-38700000D01*
X121100000Y-38700000D01*
X120606286Y-39276000D01*
X120537116Y-39356698D01*
X120478541Y-39394788D01*
X120442968Y-39400000D01*
X118924000Y-39400000D01*
X118856961Y-39380315D01*
X118811206Y-39327511D01*
X118800000Y-39276000D01*
X118800000Y-35599999D01*
X117649600Y-34737199D01*
X117607779Y-34681228D01*
X117600000Y-34637999D01*
X117600000Y-33543497D01*
X117619685Y-33476458D01*
X117627172Y-33466035D01*
X117962770Y-33046538D01*
X118020021Y-33006486D01*
X118059598Y-33000000D01*
X119940402Y-33000000D01*
X120007441Y-33019685D01*
G37*
%TD.AperFunction*%
%TD*%
%TA.AperFunction,Conductor*%
%TO.N,+3.3V*%
G36*
X117915677Y-35719685D02*
G01*
X117936319Y-35736319D01*
X118163681Y-35963681D01*
X118197166Y-36025004D01*
X118200000Y-36051362D01*
X118200000Y-40200000D01*
X118200001Y-40200001D01*
X118599999Y-40400000D01*
X118600000Y-40400000D01*
X120700000Y-40400000D01*
X121562800Y-39249600D01*
X121618771Y-39207779D01*
X121662000Y-39200000D01*
X122970728Y-39200000D01*
X123026182Y-39213091D01*
X123354060Y-39377030D01*
X123405218Y-39424616D01*
X123416242Y-39448726D01*
X123493637Y-39680911D01*
X123500000Y-39720123D01*
X123500000Y-39989737D01*
X123498313Y-40010123D01*
X123412273Y-40526358D01*
X123381835Y-40589249D01*
X123329172Y-40623609D01*
X122800001Y-40799999D01*
X119600000Y-43600000D01*
X119600000Y-44376000D01*
X119580315Y-44443039D01*
X119527511Y-44488794D01*
X119476000Y-44500000D01*
X115541333Y-44500000D01*
X115474294Y-44480315D01*
X115466933Y-44475200D01*
X115334666Y-44376000D01*
X115149600Y-44237200D01*
X115107779Y-44181229D01*
X115100000Y-44138000D01*
X115100000Y-42064970D01*
X115119685Y-41997931D01*
X115153418Y-41963018D01*
X116400000Y-41100000D01*
X116400000Y-36141333D01*
X116419685Y-36074294D01*
X116424800Y-36066933D01*
X116662800Y-35749600D01*
X116718771Y-35707779D01*
X116762000Y-35700000D01*
X117848638Y-35700000D01*
X117915677Y-35719685D01*
G37*
%TD.AperFunction*%
%TD*%
%TA.AperFunction,Conductor*%
%TO.N,VBUS*%
G36*
X121027723Y-30132457D02*
G01*
X121129887Y-30174774D01*
X121181237Y-30196044D01*
X121303849Y-30212186D01*
X121361975Y-30235858D01*
X121420668Y-30279795D01*
X121420671Y-30279797D01*
X121555517Y-30330091D01*
X121555516Y-30330091D01*
X121562444Y-30330835D01*
X121615127Y-30336500D01*
X123010872Y-30336499D01*
X123070483Y-30330091D01*
X123082663Y-30325547D01*
X123152354Y-30320561D01*
X123213678Y-30354044D01*
X123247165Y-30415366D01*
X123250000Y-30441728D01*
X123250000Y-30448636D01*
X123230315Y-30515675D01*
X123213680Y-30536319D01*
X123179348Y-30570650D01*
X123138462Y-30595712D01*
X123139131Y-30597214D01*
X123092815Y-30617834D01*
X123086755Y-30620160D01*
X123044719Y-30633819D01*
X123006430Y-30655924D01*
X123000647Y-30658871D01*
X122960267Y-30676850D01*
X122924512Y-30702826D01*
X122919069Y-30706361D01*
X122875157Y-30731715D01*
X122874038Y-30729777D01*
X122817949Y-30749797D01*
X122810856Y-30750000D01*
X121000000Y-30750000D01*
X120287200Y-31700400D01*
X120231229Y-31742221D01*
X120188000Y-31750000D01*
X118000000Y-31750000D01*
X117100000Y-32600000D01*
X117100000Y-34828777D01*
X117080315Y-34895816D01*
X117038480Y-34935886D01*
X115900000Y-35600000D01*
X115900000Y-36094210D01*
X115898738Y-36111856D01*
X115894500Y-36141331D01*
X115894500Y-37937303D01*
X115874815Y-38004342D01*
X115839283Y-38040477D01*
X115631239Y-38179174D01*
X115564540Y-38199982D01*
X115562456Y-38200000D01*
X114537544Y-38200000D01*
X114470505Y-38180315D01*
X114468761Y-38179174D01*
X114255217Y-38036811D01*
X114210356Y-37983246D01*
X114200000Y-37933637D01*
X114200000Y-35867954D01*
X114219685Y-35800915D01*
X114272489Y-35755160D01*
X114317804Y-35744109D01*
X115200000Y-35700000D01*
X115500000Y-35250000D01*
X115500000Y-32774800D01*
X115509538Y-32727108D01*
X115718205Y-32226308D01*
X115762160Y-32171996D01*
X115828500Y-32150070D01*
X115832667Y-32150000D01*
X116899999Y-32150000D01*
X116900000Y-32150000D01*
X117471429Y-31750000D01*
X117867979Y-31472415D01*
X117934188Y-31450097D01*
X117939088Y-31450000D01*
X120000000Y-31450000D01*
X120878194Y-30176617D01*
X120932458Y-30132607D01*
X121001903Y-30124919D01*
X121027723Y-30132457D01*
G37*
%TD.AperFunction*%
%TD*%
M02*
